%TF.GenerationSoftware,KiCad,Pcbnew,8.0.1*%
%TF.CreationDate,2024-04-05T15:47:02+03:00*%
%TF.ProjectId,dedekind,64656465-6b69-46e6-942e-6b696361645f,rev?*%
%TF.SameCoordinates,Original*%
%TF.FileFunction,Drillmap*%
%TF.FilePolarity,Positive*%
%FSLAX45Y45*%
G04 Gerber Fmt 4.5, Leading zero omitted, Abs format (unit mm)*
G04 Created by KiCad (PCBNEW 8.0.1) date 2024-04-05 15:47:02*
%MOMM*%
%LPD*%
G01*
G04 APERTURE LIST*
%ADD10C,0.050000*%
%ADD11C,0.200000*%
%ADD12C,0.175000*%
%ADD13C,0.305000*%
%ADD14C,0.320000*%
%ADD15C,0.400000*%
G04 APERTURE END LIST*
D10*
X11000000Y-5780000D02*
G75*
G02*
X7800000Y-6600000I-3191850J5802100D01*
G01*
X18050000Y-5650000D02*
G75*
G02*
X17350001Y-5499999I63590J2005070D01*
G01*
X7800000Y-12450000D02*
G75*
G02*
X7700000Y-12350000I0J100000D01*
G01*
X21090779Y-14018853D02*
G75*
G02*
X21000000Y-14050000I-65779J43853D01*
G01*
X15350000Y-13700000D02*
G75*
G02*
X21000000Y-14050001I2171890J-10718040D01*
G01*
X15350000Y-13700000D02*
G75*
G02*
X15205917Y-13642029I33310J290830D01*
G01*
X7800000Y-12450000D02*
X11600000Y-12450000D01*
X21090779Y-14018853D02*
X21750000Y-12195000D01*
X11600000Y-12450000D02*
G75*
G02*
X15205916Y-13642030I0J-6050000D01*
G01*
X21650000Y-5650000D02*
G75*
G02*
X21750000Y-5750000I0J-100000D01*
G01*
X7700000Y-6700000D02*
G75*
G02*
X7800000Y-6600000I100000J0D01*
G01*
X21750000Y-5750000D02*
X21750000Y-12195000D01*
X7700000Y-6700000D02*
X7700000Y-12350000D01*
X18050000Y-5650000D02*
X21650000Y-5650000D01*
X11000000Y-5780000D02*
G75*
G02*
X17350000Y-5500000I3464036J-6414932D01*
G01*
D11*
D12*
X8135750Y-7532500D02*
X8310750Y-7707500D01*
X8310750Y-7532500D02*
X8135750Y-7707500D01*
X8135750Y-7532500D02*
X8310750Y-7707500D01*
X8310750Y-7532500D02*
X8135750Y-7707500D01*
X8135750Y-9437500D02*
X8310750Y-9612500D01*
X8310750Y-9437500D02*
X8135750Y-9612500D01*
X8135750Y-9437500D02*
X8310750Y-9612500D01*
X8310750Y-9437500D02*
X8135750Y-9612500D01*
X8135750Y-11342500D02*
X8310750Y-11517500D01*
X8310750Y-11342500D02*
X8135750Y-11517500D01*
X8135750Y-11342500D02*
X8310750Y-11517500D01*
X8310750Y-11342500D02*
X8135750Y-11517500D01*
X9151750Y-7532500D02*
X9326750Y-7707500D01*
X9326750Y-7532500D02*
X9151750Y-7707500D01*
X9151750Y-7532500D02*
X9326750Y-7707500D01*
X9326750Y-7532500D02*
X9151750Y-7707500D01*
X9151750Y-9437500D02*
X9326750Y-9612500D01*
X9326750Y-9437500D02*
X9151750Y-9612500D01*
X9151750Y-9437500D02*
X9326750Y-9612500D01*
X9326750Y-9437500D02*
X9151750Y-9612500D01*
X9151750Y-11342500D02*
X9326750Y-11517500D01*
X9326750Y-11342500D02*
X9151750Y-11517500D01*
X9151750Y-11342500D02*
X9326750Y-11517500D01*
X9326750Y-11342500D02*
X9151750Y-11517500D01*
X10040750Y-7532500D02*
X10215750Y-7707500D01*
X10215750Y-7532500D02*
X10040750Y-7707500D01*
X10040750Y-7532500D02*
X10215750Y-7707500D01*
X10215750Y-7532500D02*
X10040750Y-7707500D01*
X10040750Y-9437500D02*
X10215750Y-9612500D01*
X10215750Y-9437500D02*
X10040750Y-9612500D01*
X10040750Y-9437500D02*
X10215750Y-9612500D01*
X10215750Y-9437500D02*
X10040750Y-9612500D01*
X10040750Y-11342500D02*
X10215750Y-11517500D01*
X10215750Y-11342500D02*
X10040750Y-11517500D01*
X10040750Y-11342500D02*
X10215750Y-11517500D01*
X10215750Y-11342500D02*
X10040750Y-11517500D01*
X11056750Y-7532500D02*
X11231750Y-7707500D01*
X11231750Y-7532500D02*
X11056750Y-7707500D01*
X11056750Y-7532500D02*
X11231750Y-7707500D01*
X11231750Y-7532500D02*
X11056750Y-7707500D01*
X11056750Y-9437500D02*
X11231750Y-9612500D01*
X11231750Y-9437500D02*
X11056750Y-9612500D01*
X11056750Y-9437500D02*
X11231750Y-9612500D01*
X11231750Y-9437500D02*
X11056750Y-9612500D01*
X11056750Y-11342500D02*
X11231750Y-11517500D01*
X11231750Y-11342500D02*
X11056750Y-11517500D01*
X11056750Y-11342500D02*
X11231750Y-11517500D01*
X11231750Y-11342500D02*
X11056750Y-11517500D01*
X11945750Y-6421250D02*
X12120750Y-6596250D01*
X12120750Y-6421250D02*
X11945750Y-6596250D01*
X11945750Y-6421250D02*
X12120750Y-6596250D01*
X12120750Y-6421250D02*
X11945750Y-6596250D01*
X11945750Y-8326250D02*
X12120750Y-8501250D01*
X12120750Y-8326250D02*
X11945750Y-8501250D01*
X11945750Y-8326250D02*
X12120750Y-8501250D01*
X12120750Y-8326250D02*
X11945750Y-8501250D01*
X11945750Y-10231250D02*
X12120750Y-10406250D01*
X12120750Y-10231250D02*
X11945750Y-10406250D01*
X11945750Y-10231250D02*
X12120750Y-10406250D01*
X12120750Y-10231250D02*
X11945750Y-10406250D01*
X12961750Y-6421250D02*
X13136750Y-6596250D01*
X13136750Y-6421250D02*
X12961750Y-6596250D01*
X12961750Y-6421250D02*
X13136750Y-6596250D01*
X13136750Y-6421250D02*
X12961750Y-6596250D01*
X12961750Y-8326250D02*
X13136750Y-8501250D01*
X13136750Y-8326250D02*
X12961750Y-8501250D01*
X12961750Y-8326250D02*
X13136750Y-8501250D01*
X13136750Y-8326250D02*
X12961750Y-8501250D01*
X12961750Y-10231250D02*
X13136750Y-10406250D01*
X13136750Y-10231250D02*
X12961750Y-10406250D01*
X12961750Y-10231250D02*
X13136750Y-10406250D01*
X13136750Y-10231250D02*
X12961750Y-10406250D01*
X13850750Y-5865625D02*
X14025750Y-6040625D01*
X14025750Y-5865625D02*
X13850750Y-6040625D01*
X13850750Y-5865625D02*
X14025750Y-6040625D01*
X14025750Y-5865625D02*
X13850750Y-6040625D01*
X13850750Y-7770625D02*
X14025750Y-7945625D01*
X14025750Y-7770625D02*
X13850750Y-7945625D01*
X13850750Y-7770625D02*
X14025750Y-7945625D01*
X14025750Y-7770625D02*
X13850750Y-7945625D01*
X13850750Y-9675625D02*
X14025750Y-9850625D01*
X14025750Y-9675625D02*
X13850750Y-9850625D01*
X13850750Y-9675625D02*
X14025750Y-9850625D01*
X14025750Y-9675625D02*
X13850750Y-9850625D01*
X14866750Y-5865625D02*
X15041750Y-6040625D01*
X15041750Y-5865625D02*
X14866750Y-6040625D01*
X14866750Y-5865625D02*
X15041750Y-6040625D01*
X15041750Y-5865625D02*
X14866750Y-6040625D01*
X14866750Y-7770625D02*
X15041750Y-7945625D01*
X15041750Y-7770625D02*
X14866750Y-7945625D01*
X14866750Y-7770625D02*
X15041750Y-7945625D01*
X15041750Y-7770625D02*
X14866750Y-7945625D01*
X14866750Y-9675625D02*
X15041750Y-9850625D01*
X15041750Y-9675625D02*
X14866750Y-9850625D01*
X14866750Y-9675625D02*
X15041750Y-9850625D01*
X15041750Y-9675625D02*
X14866750Y-9850625D01*
X15525343Y-12561713D02*
X15700343Y-12736713D01*
X15700343Y-12561713D02*
X15525343Y-12736713D01*
X15525343Y-12561713D02*
X15700343Y-12736713D01*
X15700343Y-12561713D02*
X15525343Y-12736713D01*
X15755750Y-6421250D02*
X15930750Y-6596250D01*
X15930750Y-6421250D02*
X15755750Y-6596250D01*
X15755750Y-6421250D02*
X15930750Y-6596250D01*
X15930750Y-6421250D02*
X15755750Y-6596250D01*
X15755750Y-8326250D02*
X15930750Y-8501250D01*
X15930750Y-8326250D02*
X15755750Y-8501250D01*
X15755750Y-8326250D02*
X15930750Y-8501250D01*
X15930750Y-8326250D02*
X15755750Y-8501250D01*
X15755750Y-10231250D02*
X15930750Y-10406250D01*
X15930750Y-10231250D02*
X15755750Y-10406250D01*
X15755750Y-10231250D02*
X15930750Y-10406250D01*
X15930750Y-10231250D02*
X15755750Y-10406250D01*
X16525907Y-12385287D02*
X16700907Y-12560287D01*
X16700907Y-12385287D02*
X16525907Y-12560287D01*
X16525907Y-12385287D02*
X16700907Y-12560287D01*
X16700907Y-12385287D02*
X16525907Y-12560287D01*
X16771750Y-6421250D02*
X16946750Y-6596250D01*
X16946750Y-6421250D02*
X16771750Y-6596250D01*
X16771750Y-6421250D02*
X16946750Y-6596250D01*
X16946750Y-6421250D02*
X16771750Y-6596250D01*
X16771750Y-8326250D02*
X16946750Y-8501250D01*
X16946750Y-8326250D02*
X16771750Y-8501250D01*
X16771750Y-8326250D02*
X16946750Y-8501250D01*
X16946750Y-8326250D02*
X16771750Y-8501250D01*
X16771750Y-10231250D02*
X16946750Y-10406250D01*
X16946750Y-10231250D02*
X16771750Y-10406250D01*
X16771750Y-10231250D02*
X16946750Y-10406250D01*
X16946750Y-10231250D02*
X16771750Y-10406250D01*
X17660750Y-6580000D02*
X17835750Y-6755000D01*
X17835750Y-6580000D02*
X17660750Y-6755000D01*
X17660750Y-6580000D02*
X17835750Y-6755000D01*
X17835750Y-6580000D02*
X17660750Y-6755000D01*
X17660750Y-8485000D02*
X17835750Y-8660000D01*
X17835750Y-8485000D02*
X17660750Y-8660000D01*
X17660750Y-8485000D02*
X17835750Y-8660000D01*
X17835750Y-8485000D02*
X17660750Y-8660000D01*
X17660750Y-10390000D02*
X17835750Y-10565000D01*
X17835750Y-10390000D02*
X17660750Y-10565000D01*
X17660750Y-10390000D02*
X17835750Y-10565000D01*
X17835750Y-10390000D02*
X17660750Y-10565000D01*
X17660750Y-12295000D02*
X17835750Y-12470000D01*
X17835750Y-12295000D02*
X17660750Y-12470000D01*
X17660750Y-12295000D02*
X17835750Y-12470000D01*
X17835750Y-12295000D02*
X17660750Y-12470000D01*
X18676750Y-6580000D02*
X18851750Y-6755000D01*
X18851750Y-6580000D02*
X18676750Y-6755000D01*
X18676750Y-6580000D02*
X18851750Y-6755000D01*
X18851750Y-6580000D02*
X18676750Y-6755000D01*
X18676750Y-8485000D02*
X18851750Y-8660000D01*
X18851750Y-8485000D02*
X18676750Y-8660000D01*
X18676750Y-8485000D02*
X18851750Y-8660000D01*
X18851750Y-8485000D02*
X18676750Y-8660000D01*
X18676750Y-10390000D02*
X18851750Y-10565000D01*
X18851750Y-10390000D02*
X18676750Y-10565000D01*
X18676750Y-10390000D02*
X18851750Y-10565000D01*
X18851750Y-10390000D02*
X18676750Y-10565000D01*
X18676750Y-12295000D02*
X18851750Y-12470000D01*
X18851750Y-12295000D02*
X18676750Y-12470000D01*
X18676750Y-12295000D02*
X18851750Y-12470000D01*
X18851750Y-12295000D02*
X18676750Y-12470000D01*
X19913886Y-12518129D02*
X20088886Y-12693129D01*
X20088886Y-12518129D02*
X19913886Y-12693129D01*
X19913886Y-12518129D02*
X20088886Y-12693129D01*
X20088886Y-12518129D02*
X19913886Y-12693129D01*
X20868614Y-12865621D02*
X21043614Y-13040621D01*
X21043614Y-12865621D02*
X20868614Y-13040621D01*
X20868614Y-12865621D02*
X21043614Y-13040621D01*
X21043614Y-12865621D02*
X20868614Y-13040621D01*
D13*
X8502750Y-7366000D02*
G75*
G02*
X8197750Y-7366000I-152500J0D01*
G01*
X8197750Y-7366000D02*
G75*
G02*
X8502750Y-7366000I152500J0D01*
G01*
X8502750Y-9271000D02*
G75*
G02*
X8197750Y-9271000I-152500J0D01*
G01*
X8197750Y-9271000D02*
G75*
G02*
X8502750Y-9271000I152500J0D01*
G01*
X8502750Y-11176000D02*
G75*
G02*
X8197750Y-11176000I-152500J0D01*
G01*
X8197750Y-11176000D02*
G75*
G02*
X8502750Y-11176000I152500J0D01*
G01*
X8629750Y-7112000D02*
G75*
G02*
X8324750Y-7112000I-152500J0D01*
G01*
X8324750Y-7112000D02*
G75*
G02*
X8629750Y-7112000I152500J0D01*
G01*
X8629750Y-9017000D02*
G75*
G02*
X8324750Y-9017000I-152500J0D01*
G01*
X8324750Y-9017000D02*
G75*
G02*
X8629750Y-9017000I152500J0D01*
G01*
X8629750Y-10922000D02*
G75*
G02*
X8324750Y-10922000I-152500J0D01*
G01*
X8324750Y-10922000D02*
G75*
G02*
X8629750Y-10922000I152500J0D01*
G01*
X9137750Y-7112000D02*
G75*
G02*
X8832750Y-7112000I-152500J0D01*
G01*
X8832750Y-7112000D02*
G75*
G02*
X9137750Y-7112000I152500J0D01*
G01*
X9137750Y-9017000D02*
G75*
G02*
X8832750Y-9017000I-152500J0D01*
G01*
X8832750Y-9017000D02*
G75*
G02*
X9137750Y-9017000I152500J0D01*
G01*
X9137750Y-10922000D02*
G75*
G02*
X8832750Y-10922000I-152500J0D01*
G01*
X8832750Y-10922000D02*
G75*
G02*
X9137750Y-10922000I152500J0D01*
G01*
X9264750Y-7366000D02*
G75*
G02*
X8959750Y-7366000I-152500J0D01*
G01*
X8959750Y-7366000D02*
G75*
G02*
X9264750Y-7366000I152500J0D01*
G01*
X9264750Y-9271000D02*
G75*
G02*
X8959750Y-9271000I-152500J0D01*
G01*
X8959750Y-9271000D02*
G75*
G02*
X9264750Y-9271000I152500J0D01*
G01*
X9264750Y-11176000D02*
G75*
G02*
X8959750Y-11176000I-152500J0D01*
G01*
X8959750Y-11176000D02*
G75*
G02*
X9264750Y-11176000I152500J0D01*
G01*
X10407750Y-7366000D02*
G75*
G02*
X10102750Y-7366000I-152500J0D01*
G01*
X10102750Y-7366000D02*
G75*
G02*
X10407750Y-7366000I152500J0D01*
G01*
X10407750Y-9271000D02*
G75*
G02*
X10102750Y-9271000I-152500J0D01*
G01*
X10102750Y-9271000D02*
G75*
G02*
X10407750Y-9271000I152500J0D01*
G01*
X10407750Y-11176000D02*
G75*
G02*
X10102750Y-11176000I-152500J0D01*
G01*
X10102750Y-11176000D02*
G75*
G02*
X10407750Y-11176000I152500J0D01*
G01*
X10534750Y-7112000D02*
G75*
G02*
X10229750Y-7112000I-152500J0D01*
G01*
X10229750Y-7112000D02*
G75*
G02*
X10534750Y-7112000I152500J0D01*
G01*
X10534750Y-9017000D02*
G75*
G02*
X10229750Y-9017000I-152500J0D01*
G01*
X10229750Y-9017000D02*
G75*
G02*
X10534750Y-9017000I152500J0D01*
G01*
X10534750Y-10922000D02*
G75*
G02*
X10229750Y-10922000I-152500J0D01*
G01*
X10229750Y-10922000D02*
G75*
G02*
X10534750Y-10922000I152500J0D01*
G01*
X11042750Y-7112000D02*
G75*
G02*
X10737750Y-7112000I-152500J0D01*
G01*
X10737750Y-7112000D02*
G75*
G02*
X11042750Y-7112000I152500J0D01*
G01*
X11042750Y-9017000D02*
G75*
G02*
X10737750Y-9017000I-152500J0D01*
G01*
X10737750Y-9017000D02*
G75*
G02*
X11042750Y-9017000I152500J0D01*
G01*
X11042750Y-10922000D02*
G75*
G02*
X10737750Y-10922000I-152500J0D01*
G01*
X10737750Y-10922000D02*
G75*
G02*
X11042750Y-10922000I152500J0D01*
G01*
X11169750Y-7366000D02*
G75*
G02*
X10864750Y-7366000I-152500J0D01*
G01*
X10864750Y-7366000D02*
G75*
G02*
X11169750Y-7366000I152500J0D01*
G01*
X11169750Y-9271000D02*
G75*
G02*
X10864750Y-9271000I-152500J0D01*
G01*
X10864750Y-9271000D02*
G75*
G02*
X11169750Y-9271000I152500J0D01*
G01*
X11169750Y-11176000D02*
G75*
G02*
X10864750Y-11176000I-152500J0D01*
G01*
X10864750Y-11176000D02*
G75*
G02*
X11169750Y-11176000I152500J0D01*
G01*
X12312750Y-6254750D02*
G75*
G02*
X12007750Y-6254750I-152500J0D01*
G01*
X12007750Y-6254750D02*
G75*
G02*
X12312750Y-6254750I152500J0D01*
G01*
X12312750Y-8159750D02*
G75*
G02*
X12007750Y-8159750I-152500J0D01*
G01*
X12007750Y-8159750D02*
G75*
G02*
X12312750Y-8159750I152500J0D01*
G01*
X12312750Y-10064750D02*
G75*
G02*
X12007750Y-10064750I-152500J0D01*
G01*
X12007750Y-10064750D02*
G75*
G02*
X12312750Y-10064750I152500J0D01*
G01*
X12439750Y-6000750D02*
G75*
G02*
X12134750Y-6000750I-152500J0D01*
G01*
X12134750Y-6000750D02*
G75*
G02*
X12439750Y-6000750I152500J0D01*
G01*
X12439750Y-7905750D02*
G75*
G02*
X12134750Y-7905750I-152500J0D01*
G01*
X12134750Y-7905750D02*
G75*
G02*
X12439750Y-7905750I152500J0D01*
G01*
X12439750Y-9810750D02*
G75*
G02*
X12134750Y-9810750I-152500J0D01*
G01*
X12134750Y-9810750D02*
G75*
G02*
X12439750Y-9810750I152500J0D01*
G01*
X12947750Y-6000750D02*
G75*
G02*
X12642750Y-6000750I-152500J0D01*
G01*
X12642750Y-6000750D02*
G75*
G02*
X12947750Y-6000750I152500J0D01*
G01*
X12947750Y-7905750D02*
G75*
G02*
X12642750Y-7905750I-152500J0D01*
G01*
X12642750Y-7905750D02*
G75*
G02*
X12947750Y-7905750I152500J0D01*
G01*
X12947750Y-9810750D02*
G75*
G02*
X12642750Y-9810750I-152500J0D01*
G01*
X12642750Y-9810750D02*
G75*
G02*
X12947750Y-9810750I152500J0D01*
G01*
X13074750Y-6254750D02*
G75*
G02*
X12769750Y-6254750I-152500J0D01*
G01*
X12769750Y-6254750D02*
G75*
G02*
X13074750Y-6254750I152500J0D01*
G01*
X13074750Y-8159750D02*
G75*
G02*
X12769750Y-8159750I-152500J0D01*
G01*
X12769750Y-8159750D02*
G75*
G02*
X13074750Y-8159750I152500J0D01*
G01*
X13074750Y-10064750D02*
G75*
G02*
X12769750Y-10064750I-152500J0D01*
G01*
X12769750Y-10064750D02*
G75*
G02*
X13074750Y-10064750I152500J0D01*
G01*
X14217750Y-5699125D02*
G75*
G02*
X13912750Y-5699125I-152500J0D01*
G01*
X13912750Y-5699125D02*
G75*
G02*
X14217750Y-5699125I152500J0D01*
G01*
X14217750Y-7604125D02*
G75*
G02*
X13912750Y-7604125I-152500J0D01*
G01*
X13912750Y-7604125D02*
G75*
G02*
X14217750Y-7604125I152500J0D01*
G01*
X14217750Y-9509125D02*
G75*
G02*
X13912750Y-9509125I-152500J0D01*
G01*
X13912750Y-9509125D02*
G75*
G02*
X14217750Y-9509125I152500J0D01*
G01*
X14344750Y-5445125D02*
G75*
G02*
X14039750Y-5445125I-152500J0D01*
G01*
X14039750Y-5445125D02*
G75*
G02*
X14344750Y-5445125I152500J0D01*
G01*
X14344750Y-7350125D02*
G75*
G02*
X14039750Y-7350125I-152500J0D01*
G01*
X14039750Y-7350125D02*
G75*
G02*
X14344750Y-7350125I152500J0D01*
G01*
X14344750Y-9255125D02*
G75*
G02*
X14039750Y-9255125I-152500J0D01*
G01*
X14039750Y-9255125D02*
G75*
G02*
X14344750Y-9255125I152500J0D01*
G01*
X14852750Y-5445125D02*
G75*
G02*
X14547750Y-5445125I-152500J0D01*
G01*
X14547750Y-5445125D02*
G75*
G02*
X14852750Y-5445125I152500J0D01*
G01*
X14852750Y-7350125D02*
G75*
G02*
X14547750Y-7350125I-152500J0D01*
G01*
X14547750Y-7350125D02*
G75*
G02*
X14852750Y-7350125I152500J0D01*
G01*
X14852750Y-9255125D02*
G75*
G02*
X14547750Y-9255125I-152500J0D01*
G01*
X14547750Y-9255125D02*
G75*
G02*
X14852750Y-9255125I152500J0D01*
G01*
X14979750Y-5699125D02*
G75*
G02*
X14674750Y-5699125I-152500J0D01*
G01*
X14674750Y-5699125D02*
G75*
G02*
X14979750Y-5699125I152500J0D01*
G01*
X14979750Y-7604125D02*
G75*
G02*
X14674750Y-7604125I-152500J0D01*
G01*
X14674750Y-7604125D02*
G75*
G02*
X14979750Y-7604125I152500J0D01*
G01*
X14979750Y-9509125D02*
G75*
G02*
X14674750Y-9509125I-152500J0D01*
G01*
X14674750Y-9509125D02*
G75*
G02*
X14979750Y-9509125I152500J0D01*
G01*
X15846307Y-12377019D02*
G75*
G02*
X15541307Y-12377019I-152500J0D01*
G01*
X15541307Y-12377019D02*
G75*
G02*
X15846307Y-12377019I152500J0D01*
G01*
X15927271Y-12104824D02*
G75*
G02*
X15622271Y-12104824I-152500J0D01*
G01*
X15622271Y-12104824D02*
G75*
G02*
X15927271Y-12104824I152500J0D01*
G01*
X16122750Y-6254750D02*
G75*
G02*
X15817750Y-6254750I-152500J0D01*
G01*
X15817750Y-6254750D02*
G75*
G02*
X16122750Y-6254750I152500J0D01*
G01*
X16122750Y-8159750D02*
G75*
G02*
X15817750Y-8159750I-152500J0D01*
G01*
X15817750Y-8159750D02*
G75*
G02*
X16122750Y-8159750I152500J0D01*
G01*
X16122750Y-10064750D02*
G75*
G02*
X15817750Y-10064750I-152500J0D01*
G01*
X15817750Y-10064750D02*
G75*
G02*
X16122750Y-10064750I152500J0D01*
G01*
X16249750Y-6000750D02*
G75*
G02*
X15944750Y-6000750I-152500J0D01*
G01*
X15944750Y-6000750D02*
G75*
G02*
X16249750Y-6000750I152500J0D01*
G01*
X16249750Y-7905750D02*
G75*
G02*
X15944750Y-7905750I-152500J0D01*
G01*
X15944750Y-7905750D02*
G75*
G02*
X16249750Y-7905750I152500J0D01*
G01*
X16249750Y-9810750D02*
G75*
G02*
X15944750Y-9810750I-152500J0D01*
G01*
X15944750Y-9810750D02*
G75*
G02*
X16249750Y-9810750I152500J0D01*
G01*
X16427553Y-12016611D02*
G75*
G02*
X16122553Y-12016611I-152500J0D01*
G01*
X16122553Y-12016611D02*
G75*
G02*
X16427553Y-12016611I152500J0D01*
G01*
X16596730Y-12244699D02*
G75*
G02*
X16291730Y-12244699I-152500J0D01*
G01*
X16291730Y-12244699D02*
G75*
G02*
X16596730Y-12244699I152500J0D01*
G01*
X16757750Y-6000750D02*
G75*
G02*
X16452750Y-6000750I-152500J0D01*
G01*
X16452750Y-6000750D02*
G75*
G02*
X16757750Y-6000750I152500J0D01*
G01*
X16757750Y-7905750D02*
G75*
G02*
X16452750Y-7905750I-152500J0D01*
G01*
X16452750Y-7905750D02*
G75*
G02*
X16757750Y-7905750I152500J0D01*
G01*
X16757750Y-9810750D02*
G75*
G02*
X16452750Y-9810750I-152500J0D01*
G01*
X16452750Y-9810750D02*
G75*
G02*
X16757750Y-9810750I152500J0D01*
G01*
X16884750Y-6254750D02*
G75*
G02*
X16579750Y-6254750I-152500J0D01*
G01*
X16579750Y-6254750D02*
G75*
G02*
X16884750Y-6254750I152500J0D01*
G01*
X16884750Y-8159750D02*
G75*
G02*
X16579750Y-8159750I-152500J0D01*
G01*
X16579750Y-8159750D02*
G75*
G02*
X16884750Y-8159750I152500J0D01*
G01*
X16884750Y-10064750D02*
G75*
G02*
X16579750Y-10064750I-152500J0D01*
G01*
X16579750Y-10064750D02*
G75*
G02*
X16884750Y-10064750I152500J0D01*
G01*
X18027750Y-6413500D02*
G75*
G02*
X17722750Y-6413500I-152500J0D01*
G01*
X17722750Y-6413500D02*
G75*
G02*
X18027750Y-6413500I152500J0D01*
G01*
X18027750Y-8318500D02*
G75*
G02*
X17722750Y-8318500I-152500J0D01*
G01*
X17722750Y-8318500D02*
G75*
G02*
X18027750Y-8318500I152500J0D01*
G01*
X18027750Y-10223500D02*
G75*
G02*
X17722750Y-10223500I-152500J0D01*
G01*
X17722750Y-10223500D02*
G75*
G02*
X18027750Y-10223500I152500J0D01*
G01*
X18027750Y-12128500D02*
G75*
G02*
X17722750Y-12128500I-152500J0D01*
G01*
X17722750Y-12128500D02*
G75*
G02*
X18027750Y-12128500I152500J0D01*
G01*
X18154750Y-6159500D02*
G75*
G02*
X17849750Y-6159500I-152500J0D01*
G01*
X17849750Y-6159500D02*
G75*
G02*
X18154750Y-6159500I152500J0D01*
G01*
X18154750Y-8064500D02*
G75*
G02*
X17849750Y-8064500I-152500J0D01*
G01*
X17849750Y-8064500D02*
G75*
G02*
X18154750Y-8064500I152500J0D01*
G01*
X18154750Y-9969500D02*
G75*
G02*
X17849750Y-9969500I-152500J0D01*
G01*
X17849750Y-9969500D02*
G75*
G02*
X18154750Y-9969500I152500J0D01*
G01*
X18154750Y-11874500D02*
G75*
G02*
X17849750Y-11874500I-152500J0D01*
G01*
X17849750Y-11874500D02*
G75*
G02*
X18154750Y-11874500I152500J0D01*
G01*
X18662750Y-6159500D02*
G75*
G02*
X18357750Y-6159500I-152500J0D01*
G01*
X18357750Y-6159500D02*
G75*
G02*
X18662750Y-6159500I152500J0D01*
G01*
X18662750Y-8064500D02*
G75*
G02*
X18357750Y-8064500I-152500J0D01*
G01*
X18357750Y-8064500D02*
G75*
G02*
X18662750Y-8064500I152500J0D01*
G01*
X18662750Y-9969500D02*
G75*
G02*
X18357750Y-9969500I-152500J0D01*
G01*
X18357750Y-9969500D02*
G75*
G02*
X18662750Y-9969500I152500J0D01*
G01*
X18662750Y-11874500D02*
G75*
G02*
X18357750Y-11874500I-152500J0D01*
G01*
X18357750Y-11874500D02*
G75*
G02*
X18662750Y-11874500I152500J0D01*
G01*
X18789750Y-6413500D02*
G75*
G02*
X18484750Y-6413500I-152500J0D01*
G01*
X18484750Y-6413500D02*
G75*
G02*
X18789750Y-6413500I152500J0D01*
G01*
X18789750Y-8318500D02*
G75*
G02*
X18484750Y-8318500I-152500J0D01*
G01*
X18484750Y-8318500D02*
G75*
G02*
X18789750Y-8318500I152500J0D01*
G01*
X18789750Y-10223500D02*
G75*
G02*
X18484750Y-10223500I-152500J0D01*
G01*
X18484750Y-10223500D02*
G75*
G02*
X18789750Y-10223500I152500J0D01*
G01*
X18789750Y-12128500D02*
G75*
G02*
X18484750Y-12128500I-152500J0D01*
G01*
X18484750Y-12128500D02*
G75*
G02*
X18789750Y-12128500I152500J0D01*
G01*
X20360100Y-12410383D02*
G75*
G02*
X20055100Y-12410383I-152500J0D01*
G01*
X20055100Y-12410383D02*
G75*
G02*
X20360100Y-12410383I152500J0D01*
G01*
X20566314Y-12215138D02*
G75*
G02*
X20261314Y-12215138I-152500J0D01*
G01*
X20261314Y-12215138D02*
G75*
G02*
X20566314Y-12215138I152500J0D01*
G01*
X21043678Y-12388884D02*
G75*
G02*
X20738678Y-12388884I-152500J0D01*
G01*
X20738678Y-12388884D02*
G75*
G02*
X21043678Y-12388884I152500J0D01*
G01*
X21076146Y-12671003D02*
G75*
G02*
X20771146Y-12671003I-152500J0D01*
G01*
X20771146Y-12671003D02*
G75*
G02*
X21076146Y-12671003I152500J0D01*
G01*
D14*
X9683750Y-10317500D02*
X9683750Y-10637500D01*
X9523750Y-10477500D02*
X9843750Y-10477500D01*
X11150000Y-6140000D02*
X11150000Y-6460000D01*
X10990000Y-6300000D02*
X11310000Y-6300000D01*
X15100000Y-10840000D02*
X15100000Y-11160000D01*
X14940000Y-11000000D02*
X15260000Y-11000000D01*
X17300000Y-7380000D02*
X17300000Y-7700000D01*
X17140000Y-7540000D02*
X17460000Y-7540000D01*
D15*
X8872673Y-7761423D02*
X8872673Y-7478577D01*
X8589827Y-7478577D01*
X8589827Y-7761423D01*
X8872673Y-7761423D01*
X8872673Y-9666423D02*
X8872673Y-9383577D01*
X8589827Y-9383577D01*
X8589827Y-9666423D01*
X8872673Y-9666423D01*
X8872673Y-11571423D02*
X8872673Y-11288577D01*
X8589827Y-11288577D01*
X8589827Y-11571423D01*
X8872673Y-11571423D01*
X10777673Y-7761423D02*
X10777673Y-7478577D01*
X10494827Y-7478577D01*
X10494827Y-7761423D01*
X10777673Y-7761423D01*
X10777673Y-9666423D02*
X10777673Y-9383577D01*
X10494827Y-9383577D01*
X10494827Y-9666423D01*
X10777673Y-9666423D01*
X10777673Y-11571423D02*
X10777673Y-11288577D01*
X10494827Y-11288577D01*
X10494827Y-11571423D01*
X10777673Y-11571423D01*
X12682673Y-6650173D02*
X12682673Y-6367327D01*
X12399827Y-6367327D01*
X12399827Y-6650173D01*
X12682673Y-6650173D01*
X12682673Y-8555173D02*
X12682673Y-8272327D01*
X12399827Y-8272327D01*
X12399827Y-8555173D01*
X12682673Y-8555173D01*
X12682673Y-10460173D02*
X12682673Y-10177327D01*
X12399827Y-10177327D01*
X12399827Y-10460173D01*
X12682673Y-10460173D01*
X14587673Y-6094548D02*
X14587673Y-5811702D01*
X14304827Y-5811702D01*
X14304827Y-6094548D01*
X14587673Y-6094548D01*
X14587673Y-7999548D02*
X14587673Y-7716702D01*
X14304827Y-7716702D01*
X14304827Y-7999548D01*
X14587673Y-7999548D01*
X14587673Y-9904548D02*
X14587673Y-9621702D01*
X14304827Y-9621702D01*
X14304827Y-9904548D01*
X14587673Y-9904548D01*
X16254548Y-12702423D02*
X16254548Y-12419577D01*
X15971702Y-12419577D01*
X15971702Y-12702423D01*
X16254548Y-12702423D01*
X16492673Y-6650173D02*
X16492673Y-6367327D01*
X16209827Y-6367327D01*
X16209827Y-6650173D01*
X16492673Y-6650173D01*
X16492673Y-8555173D02*
X16492673Y-8272327D01*
X16209827Y-8272327D01*
X16209827Y-8555173D01*
X16492673Y-8555173D01*
X16492673Y-10460173D02*
X16492673Y-10177327D01*
X16209827Y-10177327D01*
X16209827Y-10460173D01*
X16492673Y-10460173D01*
X18397673Y-6808923D02*
X18397673Y-6526077D01*
X18114827Y-6526077D01*
X18114827Y-6808923D01*
X18397673Y-6808923D01*
X18397673Y-8713923D02*
X18397673Y-8431077D01*
X18114827Y-8431077D01*
X18114827Y-8713923D01*
X18397673Y-8713923D01*
X18397673Y-10618923D02*
X18397673Y-10336077D01*
X18114827Y-10336077D01*
X18114827Y-10618923D01*
X18397673Y-10618923D01*
X18397673Y-12523923D02*
X18397673Y-12241077D01*
X18114827Y-12241077D01*
X18114827Y-12523923D01*
X18397673Y-12523923D01*
X20620173Y-12920798D02*
X20620173Y-12637952D01*
X20337327Y-12637952D01*
X20337327Y-12920798D01*
X20620173Y-12920798D01*
D11*
X7958277Y-14368041D02*
X7958277Y-14168041D01*
X7958277Y-14168041D02*
X8005896Y-14168041D01*
X8005896Y-14168041D02*
X8034467Y-14177564D01*
X8034467Y-14177564D02*
X8053515Y-14196612D01*
X8053515Y-14196612D02*
X8063039Y-14215660D01*
X8063039Y-14215660D02*
X8072562Y-14253755D01*
X8072562Y-14253755D02*
X8072562Y-14282326D01*
X8072562Y-14282326D02*
X8063039Y-14320422D01*
X8063039Y-14320422D02*
X8053515Y-14339469D01*
X8053515Y-14339469D02*
X8034467Y-14358517D01*
X8034467Y-14358517D02*
X8005896Y-14368041D01*
X8005896Y-14368041D02*
X7958277Y-14368041D01*
X8158277Y-14368041D02*
X8158277Y-14234707D01*
X8158277Y-14272803D02*
X8167801Y-14253755D01*
X8167801Y-14253755D02*
X8177324Y-14244231D01*
X8177324Y-14244231D02*
X8196372Y-14234707D01*
X8196372Y-14234707D02*
X8215420Y-14234707D01*
X8282086Y-14368041D02*
X8282086Y-14234707D01*
X8282086Y-14168041D02*
X8272562Y-14177564D01*
X8272562Y-14177564D02*
X8282086Y-14187088D01*
X8282086Y-14187088D02*
X8291610Y-14177564D01*
X8291610Y-14177564D02*
X8282086Y-14168041D01*
X8282086Y-14168041D02*
X8282086Y-14187088D01*
X8405896Y-14368041D02*
X8386848Y-14358517D01*
X8386848Y-14358517D02*
X8377324Y-14339469D01*
X8377324Y-14339469D02*
X8377324Y-14168041D01*
X8510658Y-14368041D02*
X8491610Y-14358517D01*
X8491610Y-14358517D02*
X8482086Y-14339469D01*
X8482086Y-14339469D02*
X8482086Y-14168041D01*
X8739229Y-14368041D02*
X8739229Y-14168041D01*
X8739229Y-14168041D02*
X8805896Y-14310898D01*
X8805896Y-14310898D02*
X8872563Y-14168041D01*
X8872563Y-14168041D02*
X8872563Y-14368041D01*
X9053515Y-14368041D02*
X9053515Y-14263279D01*
X9053515Y-14263279D02*
X9043991Y-14244231D01*
X9043991Y-14244231D02*
X9024944Y-14234707D01*
X9024944Y-14234707D02*
X8986848Y-14234707D01*
X8986848Y-14234707D02*
X8967801Y-14244231D01*
X9053515Y-14358517D02*
X9034467Y-14368041D01*
X9034467Y-14368041D02*
X8986848Y-14368041D01*
X8986848Y-14368041D02*
X8967801Y-14358517D01*
X8967801Y-14358517D02*
X8958277Y-14339469D01*
X8958277Y-14339469D02*
X8958277Y-14320422D01*
X8958277Y-14320422D02*
X8967801Y-14301374D01*
X8967801Y-14301374D02*
X8986848Y-14291850D01*
X8986848Y-14291850D02*
X9034467Y-14291850D01*
X9034467Y-14291850D02*
X9053515Y-14282326D01*
X9148753Y-14234707D02*
X9148753Y-14434707D01*
X9148753Y-14244231D02*
X9167801Y-14234707D01*
X9167801Y-14234707D02*
X9205896Y-14234707D01*
X9205896Y-14234707D02*
X9224944Y-14244231D01*
X9224944Y-14244231D02*
X9234467Y-14253755D01*
X9234467Y-14253755D02*
X9243991Y-14272803D01*
X9243991Y-14272803D02*
X9243991Y-14329945D01*
X9243991Y-14329945D02*
X9234467Y-14348993D01*
X9234467Y-14348993D02*
X9224944Y-14358517D01*
X9224944Y-14358517D02*
X9205896Y-14368041D01*
X9205896Y-14368041D02*
X9167801Y-14368041D01*
X9167801Y-14368041D02*
X9148753Y-14358517D01*
X9329705Y-14348993D02*
X9339229Y-14358517D01*
X9339229Y-14358517D02*
X9329705Y-14368041D01*
X9329705Y-14368041D02*
X9320182Y-14358517D01*
X9320182Y-14358517D02*
X9329705Y-14348993D01*
X9329705Y-14348993D02*
X9329705Y-14368041D01*
X9329705Y-14244231D02*
X9339229Y-14253755D01*
X9339229Y-14253755D02*
X9329705Y-14263279D01*
X9329705Y-14263279D02*
X9320182Y-14253755D01*
X9320182Y-14253755D02*
X9329705Y-14244231D01*
X9329705Y-14244231D02*
X9329705Y-14263279D01*
D12*
X7522500Y-14609057D02*
X7697500Y-14784057D01*
X7697500Y-14609057D02*
X7522500Y-14784057D01*
D11*
X8063039Y-14788041D02*
X7948753Y-14788041D01*
X8005896Y-14788041D02*
X8005896Y-14588041D01*
X8005896Y-14588041D02*
X7986848Y-14616612D01*
X7986848Y-14616612D02*
X7967801Y-14635660D01*
X7967801Y-14635660D02*
X7948753Y-14645183D01*
X8148753Y-14768993D02*
X8158277Y-14778517D01*
X8158277Y-14778517D02*
X8148753Y-14788041D01*
X8148753Y-14788041D02*
X8139229Y-14778517D01*
X8139229Y-14778517D02*
X8148753Y-14768993D01*
X8148753Y-14768993D02*
X8148753Y-14788041D01*
X8224943Y-14588041D02*
X8358277Y-14588041D01*
X8358277Y-14588041D02*
X8272562Y-14788041D01*
X8529705Y-14588041D02*
X8434467Y-14588041D01*
X8434467Y-14588041D02*
X8424944Y-14683279D01*
X8424944Y-14683279D02*
X8434467Y-14673755D01*
X8434467Y-14673755D02*
X8453515Y-14664231D01*
X8453515Y-14664231D02*
X8501134Y-14664231D01*
X8501134Y-14664231D02*
X8520182Y-14673755D01*
X8520182Y-14673755D02*
X8529705Y-14683279D01*
X8529705Y-14683279D02*
X8539229Y-14702326D01*
X8539229Y-14702326D02*
X8539229Y-14749945D01*
X8539229Y-14749945D02*
X8529705Y-14768993D01*
X8529705Y-14768993D02*
X8520182Y-14778517D01*
X8520182Y-14778517D02*
X8501134Y-14788041D01*
X8501134Y-14788041D02*
X8453515Y-14788041D01*
X8453515Y-14788041D02*
X8434467Y-14778517D01*
X8434467Y-14778517D02*
X8424944Y-14768993D01*
X8663039Y-14588041D02*
X8682086Y-14588041D01*
X8682086Y-14588041D02*
X8701134Y-14597564D01*
X8701134Y-14597564D02*
X8710658Y-14607088D01*
X8710658Y-14607088D02*
X8720182Y-14626136D01*
X8720182Y-14626136D02*
X8729705Y-14664231D01*
X8729705Y-14664231D02*
X8729705Y-14711850D01*
X8729705Y-14711850D02*
X8720182Y-14749945D01*
X8720182Y-14749945D02*
X8710658Y-14768993D01*
X8710658Y-14768993D02*
X8701134Y-14778517D01*
X8701134Y-14778517D02*
X8682086Y-14788041D01*
X8682086Y-14788041D02*
X8663039Y-14788041D01*
X8663039Y-14788041D02*
X8643991Y-14778517D01*
X8643991Y-14778517D02*
X8634467Y-14768993D01*
X8634467Y-14768993D02*
X8624944Y-14749945D01*
X8624944Y-14749945D02*
X8615420Y-14711850D01*
X8615420Y-14711850D02*
X8615420Y-14664231D01*
X8615420Y-14664231D02*
X8624944Y-14626136D01*
X8624944Y-14626136D02*
X8634467Y-14607088D01*
X8634467Y-14607088D02*
X8643991Y-14597564D01*
X8643991Y-14597564D02*
X8663039Y-14588041D01*
X8815420Y-14788041D02*
X8815420Y-14654707D01*
X8815420Y-14673755D02*
X8824944Y-14664231D01*
X8824944Y-14664231D02*
X8843991Y-14654707D01*
X8843991Y-14654707D02*
X8872563Y-14654707D01*
X8872563Y-14654707D02*
X8891610Y-14664231D01*
X8891610Y-14664231D02*
X8901134Y-14683279D01*
X8901134Y-14683279D02*
X8901134Y-14788041D01*
X8901134Y-14683279D02*
X8910658Y-14664231D01*
X8910658Y-14664231D02*
X8929705Y-14654707D01*
X8929705Y-14654707D02*
X8958277Y-14654707D01*
X8958277Y-14654707D02*
X8977325Y-14664231D01*
X8977325Y-14664231D02*
X8986848Y-14683279D01*
X8986848Y-14683279D02*
X8986848Y-14788041D01*
X9082086Y-14788041D02*
X9082086Y-14654707D01*
X9082086Y-14673755D02*
X9091610Y-14664231D01*
X9091610Y-14664231D02*
X9110658Y-14654707D01*
X9110658Y-14654707D02*
X9139229Y-14654707D01*
X9139229Y-14654707D02*
X9158277Y-14664231D01*
X9158277Y-14664231D02*
X9167801Y-14683279D01*
X9167801Y-14683279D02*
X9167801Y-14788041D01*
X9167801Y-14683279D02*
X9177325Y-14664231D01*
X9177325Y-14664231D02*
X9196372Y-14654707D01*
X9196372Y-14654707D02*
X9224944Y-14654707D01*
X9224944Y-14654707D02*
X9243991Y-14664231D01*
X9243991Y-14664231D02*
X9253515Y-14683279D01*
X9253515Y-14683279D02*
X9253515Y-14788041D01*
X9643991Y-14578517D02*
X9472563Y-14835660D01*
X9901134Y-14588041D02*
X9920182Y-14588041D01*
X9920182Y-14588041D02*
X9939229Y-14597564D01*
X9939229Y-14597564D02*
X9948753Y-14607088D01*
X9948753Y-14607088D02*
X9958277Y-14626136D01*
X9958277Y-14626136D02*
X9967801Y-14664231D01*
X9967801Y-14664231D02*
X9967801Y-14711850D01*
X9967801Y-14711850D02*
X9958277Y-14749945D01*
X9958277Y-14749945D02*
X9948753Y-14768993D01*
X9948753Y-14768993D02*
X9939229Y-14778517D01*
X9939229Y-14778517D02*
X9920182Y-14788041D01*
X9920182Y-14788041D02*
X9901134Y-14788041D01*
X9901134Y-14788041D02*
X9882087Y-14778517D01*
X9882087Y-14778517D02*
X9872563Y-14768993D01*
X9872563Y-14768993D02*
X9863039Y-14749945D01*
X9863039Y-14749945D02*
X9853515Y-14711850D01*
X9853515Y-14711850D02*
X9853515Y-14664231D01*
X9853515Y-14664231D02*
X9863039Y-14626136D01*
X9863039Y-14626136D02*
X9872563Y-14607088D01*
X9872563Y-14607088D02*
X9882087Y-14597564D01*
X9882087Y-14597564D02*
X9901134Y-14588041D01*
X10053515Y-14768993D02*
X10063039Y-14778517D01*
X10063039Y-14778517D02*
X10053515Y-14788041D01*
X10053515Y-14788041D02*
X10043991Y-14778517D01*
X10043991Y-14778517D02*
X10053515Y-14768993D01*
X10053515Y-14768993D02*
X10053515Y-14788041D01*
X10186848Y-14588041D02*
X10205896Y-14588041D01*
X10205896Y-14588041D02*
X10224944Y-14597564D01*
X10224944Y-14597564D02*
X10234468Y-14607088D01*
X10234468Y-14607088D02*
X10243991Y-14626136D01*
X10243991Y-14626136D02*
X10253515Y-14664231D01*
X10253515Y-14664231D02*
X10253515Y-14711850D01*
X10253515Y-14711850D02*
X10243991Y-14749945D01*
X10243991Y-14749945D02*
X10234468Y-14768993D01*
X10234468Y-14768993D02*
X10224944Y-14778517D01*
X10224944Y-14778517D02*
X10205896Y-14788041D01*
X10205896Y-14788041D02*
X10186848Y-14788041D01*
X10186848Y-14788041D02*
X10167801Y-14778517D01*
X10167801Y-14778517D02*
X10158277Y-14768993D01*
X10158277Y-14768993D02*
X10148753Y-14749945D01*
X10148753Y-14749945D02*
X10139229Y-14711850D01*
X10139229Y-14711850D02*
X10139229Y-14664231D01*
X10139229Y-14664231D02*
X10148753Y-14626136D01*
X10148753Y-14626136D02*
X10158277Y-14607088D01*
X10158277Y-14607088D02*
X10167801Y-14597564D01*
X10167801Y-14597564D02*
X10186848Y-14588041D01*
X10424944Y-14588041D02*
X10386848Y-14588041D01*
X10386848Y-14588041D02*
X10367801Y-14597564D01*
X10367801Y-14597564D02*
X10358277Y-14607088D01*
X10358277Y-14607088D02*
X10339229Y-14635660D01*
X10339229Y-14635660D02*
X10329706Y-14673755D01*
X10329706Y-14673755D02*
X10329706Y-14749945D01*
X10329706Y-14749945D02*
X10339229Y-14768993D01*
X10339229Y-14768993D02*
X10348753Y-14778517D01*
X10348753Y-14778517D02*
X10367801Y-14788041D01*
X10367801Y-14788041D02*
X10405896Y-14788041D01*
X10405896Y-14788041D02*
X10424944Y-14778517D01*
X10424944Y-14778517D02*
X10434468Y-14768993D01*
X10434468Y-14768993D02*
X10443991Y-14749945D01*
X10443991Y-14749945D02*
X10443991Y-14702326D01*
X10443991Y-14702326D02*
X10434468Y-14683279D01*
X10434468Y-14683279D02*
X10424944Y-14673755D01*
X10424944Y-14673755D02*
X10405896Y-14664231D01*
X10405896Y-14664231D02*
X10367801Y-14664231D01*
X10367801Y-14664231D02*
X10348753Y-14673755D01*
X10348753Y-14673755D02*
X10339229Y-14683279D01*
X10339229Y-14683279D02*
X10329706Y-14702326D01*
X10558277Y-14673755D02*
X10539229Y-14664231D01*
X10539229Y-14664231D02*
X10529706Y-14654707D01*
X10529706Y-14654707D02*
X10520182Y-14635660D01*
X10520182Y-14635660D02*
X10520182Y-14626136D01*
X10520182Y-14626136D02*
X10529706Y-14607088D01*
X10529706Y-14607088D02*
X10539229Y-14597564D01*
X10539229Y-14597564D02*
X10558277Y-14588041D01*
X10558277Y-14588041D02*
X10596372Y-14588041D01*
X10596372Y-14588041D02*
X10615420Y-14597564D01*
X10615420Y-14597564D02*
X10624944Y-14607088D01*
X10624944Y-14607088D02*
X10634468Y-14626136D01*
X10634468Y-14626136D02*
X10634468Y-14635660D01*
X10634468Y-14635660D02*
X10624944Y-14654707D01*
X10624944Y-14654707D02*
X10615420Y-14664231D01*
X10615420Y-14664231D02*
X10596372Y-14673755D01*
X10596372Y-14673755D02*
X10558277Y-14673755D01*
X10558277Y-14673755D02*
X10539229Y-14683279D01*
X10539229Y-14683279D02*
X10529706Y-14692803D01*
X10529706Y-14692803D02*
X10520182Y-14711850D01*
X10520182Y-14711850D02*
X10520182Y-14749945D01*
X10520182Y-14749945D02*
X10529706Y-14768993D01*
X10529706Y-14768993D02*
X10539229Y-14778517D01*
X10539229Y-14778517D02*
X10558277Y-14788041D01*
X10558277Y-14788041D02*
X10596372Y-14788041D01*
X10596372Y-14788041D02*
X10615420Y-14778517D01*
X10615420Y-14778517D02*
X10624944Y-14768993D01*
X10624944Y-14768993D02*
X10634468Y-14749945D01*
X10634468Y-14749945D02*
X10634468Y-14711850D01*
X10634468Y-14711850D02*
X10624944Y-14692803D01*
X10624944Y-14692803D02*
X10615420Y-14683279D01*
X10615420Y-14683279D02*
X10596372Y-14673755D01*
X10729706Y-14788041D02*
X10767801Y-14788041D01*
X10767801Y-14788041D02*
X10786849Y-14778517D01*
X10786849Y-14778517D02*
X10796372Y-14768993D01*
X10796372Y-14768993D02*
X10815420Y-14740422D01*
X10815420Y-14740422D02*
X10824944Y-14702326D01*
X10824944Y-14702326D02*
X10824944Y-14626136D01*
X10824944Y-14626136D02*
X10815420Y-14607088D01*
X10815420Y-14607088D02*
X10805896Y-14597564D01*
X10805896Y-14597564D02*
X10786849Y-14588041D01*
X10786849Y-14588041D02*
X10748753Y-14588041D01*
X10748753Y-14588041D02*
X10729706Y-14597564D01*
X10729706Y-14597564D02*
X10720182Y-14607088D01*
X10720182Y-14607088D02*
X10710658Y-14626136D01*
X10710658Y-14626136D02*
X10710658Y-14673755D01*
X10710658Y-14673755D02*
X10720182Y-14692803D01*
X10720182Y-14692803D02*
X10729706Y-14702326D01*
X10729706Y-14702326D02*
X10748753Y-14711850D01*
X10748753Y-14711850D02*
X10786849Y-14711850D01*
X10786849Y-14711850D02*
X10805896Y-14702326D01*
X10805896Y-14702326D02*
X10815420Y-14692803D01*
X10815420Y-14692803D02*
X10824944Y-14673755D01*
X10901134Y-14588041D02*
X10901134Y-14626136D01*
X10977325Y-14588041D02*
X10977325Y-14626136D01*
X11272563Y-14864231D02*
X11263039Y-14854707D01*
X11263039Y-14854707D02*
X11243991Y-14826136D01*
X11243991Y-14826136D02*
X11234468Y-14807088D01*
X11234468Y-14807088D02*
X11224944Y-14778517D01*
X11224944Y-14778517D02*
X11215420Y-14730898D01*
X11215420Y-14730898D02*
X11215420Y-14692803D01*
X11215420Y-14692803D02*
X11224944Y-14645183D01*
X11224944Y-14645183D02*
X11234468Y-14616612D01*
X11234468Y-14616612D02*
X11243991Y-14597564D01*
X11243991Y-14597564D02*
X11263039Y-14568993D01*
X11263039Y-14568993D02*
X11272563Y-14559469D01*
X11377325Y-14673755D02*
X11358277Y-14664231D01*
X11358277Y-14664231D02*
X11348753Y-14654707D01*
X11348753Y-14654707D02*
X11339229Y-14635660D01*
X11339229Y-14635660D02*
X11339229Y-14626136D01*
X11339229Y-14626136D02*
X11348753Y-14607088D01*
X11348753Y-14607088D02*
X11358277Y-14597564D01*
X11358277Y-14597564D02*
X11377325Y-14588041D01*
X11377325Y-14588041D02*
X11415420Y-14588041D01*
X11415420Y-14588041D02*
X11434468Y-14597564D01*
X11434468Y-14597564D02*
X11443991Y-14607088D01*
X11443991Y-14607088D02*
X11453515Y-14626136D01*
X11453515Y-14626136D02*
X11453515Y-14635660D01*
X11453515Y-14635660D02*
X11443991Y-14654707D01*
X11443991Y-14654707D02*
X11434468Y-14664231D01*
X11434468Y-14664231D02*
X11415420Y-14673755D01*
X11415420Y-14673755D02*
X11377325Y-14673755D01*
X11377325Y-14673755D02*
X11358277Y-14683279D01*
X11358277Y-14683279D02*
X11348753Y-14692803D01*
X11348753Y-14692803D02*
X11339229Y-14711850D01*
X11339229Y-14711850D02*
X11339229Y-14749945D01*
X11339229Y-14749945D02*
X11348753Y-14768993D01*
X11348753Y-14768993D02*
X11358277Y-14778517D01*
X11358277Y-14778517D02*
X11377325Y-14788041D01*
X11377325Y-14788041D02*
X11415420Y-14788041D01*
X11415420Y-14788041D02*
X11434468Y-14778517D01*
X11434468Y-14778517D02*
X11443991Y-14768993D01*
X11443991Y-14768993D02*
X11453515Y-14749945D01*
X11453515Y-14749945D02*
X11453515Y-14711850D01*
X11453515Y-14711850D02*
X11443991Y-14692803D01*
X11443991Y-14692803D02*
X11434468Y-14683279D01*
X11434468Y-14683279D02*
X11415420Y-14673755D01*
X11624944Y-14654707D02*
X11624944Y-14788041D01*
X11577325Y-14578517D02*
X11529706Y-14721374D01*
X11529706Y-14721374D02*
X11653515Y-14721374D01*
X11882087Y-14788041D02*
X11882087Y-14588041D01*
X11967801Y-14788041D02*
X11967801Y-14683279D01*
X11967801Y-14683279D02*
X11958277Y-14664231D01*
X11958277Y-14664231D02*
X11939230Y-14654707D01*
X11939230Y-14654707D02*
X11910658Y-14654707D01*
X11910658Y-14654707D02*
X11891610Y-14664231D01*
X11891610Y-14664231D02*
X11882087Y-14673755D01*
X12091610Y-14788041D02*
X12072563Y-14778517D01*
X12072563Y-14778517D02*
X12063039Y-14768993D01*
X12063039Y-14768993D02*
X12053515Y-14749945D01*
X12053515Y-14749945D02*
X12053515Y-14692803D01*
X12053515Y-14692803D02*
X12063039Y-14673755D01*
X12063039Y-14673755D02*
X12072563Y-14664231D01*
X12072563Y-14664231D02*
X12091610Y-14654707D01*
X12091610Y-14654707D02*
X12120182Y-14654707D01*
X12120182Y-14654707D02*
X12139230Y-14664231D01*
X12139230Y-14664231D02*
X12148753Y-14673755D01*
X12148753Y-14673755D02*
X12158277Y-14692803D01*
X12158277Y-14692803D02*
X12158277Y-14749945D01*
X12158277Y-14749945D02*
X12148753Y-14768993D01*
X12148753Y-14768993D02*
X12139230Y-14778517D01*
X12139230Y-14778517D02*
X12120182Y-14788041D01*
X12120182Y-14788041D02*
X12091610Y-14788041D01*
X12272563Y-14788041D02*
X12253515Y-14778517D01*
X12253515Y-14778517D02*
X12243991Y-14759469D01*
X12243991Y-14759469D02*
X12243991Y-14588041D01*
X12424944Y-14778517D02*
X12405896Y-14788041D01*
X12405896Y-14788041D02*
X12367801Y-14788041D01*
X12367801Y-14788041D02*
X12348753Y-14778517D01*
X12348753Y-14778517D02*
X12339230Y-14759469D01*
X12339230Y-14759469D02*
X12339230Y-14683279D01*
X12339230Y-14683279D02*
X12348753Y-14664231D01*
X12348753Y-14664231D02*
X12367801Y-14654707D01*
X12367801Y-14654707D02*
X12405896Y-14654707D01*
X12405896Y-14654707D02*
X12424944Y-14664231D01*
X12424944Y-14664231D02*
X12434468Y-14683279D01*
X12434468Y-14683279D02*
X12434468Y-14702326D01*
X12434468Y-14702326D02*
X12339230Y-14721374D01*
X12510658Y-14778517D02*
X12529706Y-14788041D01*
X12529706Y-14788041D02*
X12567801Y-14788041D01*
X12567801Y-14788041D02*
X12586849Y-14778517D01*
X12586849Y-14778517D02*
X12596372Y-14759469D01*
X12596372Y-14759469D02*
X12596372Y-14749945D01*
X12596372Y-14749945D02*
X12586849Y-14730898D01*
X12586849Y-14730898D02*
X12567801Y-14721374D01*
X12567801Y-14721374D02*
X12539230Y-14721374D01*
X12539230Y-14721374D02*
X12520182Y-14711850D01*
X12520182Y-14711850D02*
X12510658Y-14692803D01*
X12510658Y-14692803D02*
X12510658Y-14683279D01*
X12510658Y-14683279D02*
X12520182Y-14664231D01*
X12520182Y-14664231D02*
X12539230Y-14654707D01*
X12539230Y-14654707D02*
X12567801Y-14654707D01*
X12567801Y-14654707D02*
X12586849Y-14664231D01*
X12663039Y-14864231D02*
X12672563Y-14854707D01*
X12672563Y-14854707D02*
X12691611Y-14826136D01*
X12691611Y-14826136D02*
X12701134Y-14807088D01*
X12701134Y-14807088D02*
X12710658Y-14778517D01*
X12710658Y-14778517D02*
X12720182Y-14730898D01*
X12720182Y-14730898D02*
X12720182Y-14692803D01*
X12720182Y-14692803D02*
X12710658Y-14645183D01*
X12710658Y-14645183D02*
X12701134Y-14616612D01*
X12701134Y-14616612D02*
X12691611Y-14597564D01*
X12691611Y-14597564D02*
X12672563Y-14568993D01*
X12672563Y-14568993D02*
X12663039Y-14559469D01*
X13024944Y-14864231D02*
X13015420Y-14854707D01*
X13015420Y-14854707D02*
X12996372Y-14826136D01*
X12996372Y-14826136D02*
X12986849Y-14807088D01*
X12986849Y-14807088D02*
X12977325Y-14778517D01*
X12977325Y-14778517D02*
X12967801Y-14730898D01*
X12967801Y-14730898D02*
X12967801Y-14692803D01*
X12967801Y-14692803D02*
X12977325Y-14645183D01*
X12977325Y-14645183D02*
X12986849Y-14616612D01*
X12986849Y-14616612D02*
X12996372Y-14597564D01*
X12996372Y-14597564D02*
X13015420Y-14568993D01*
X13015420Y-14568993D02*
X13024944Y-14559469D01*
X13101134Y-14654707D02*
X13101134Y-14788041D01*
X13101134Y-14673755D02*
X13110658Y-14664231D01*
X13110658Y-14664231D02*
X13129706Y-14654707D01*
X13129706Y-14654707D02*
X13158277Y-14654707D01*
X13158277Y-14654707D02*
X13177325Y-14664231D01*
X13177325Y-14664231D02*
X13186849Y-14683279D01*
X13186849Y-14683279D02*
X13186849Y-14788041D01*
X13310658Y-14788041D02*
X13291611Y-14778517D01*
X13291611Y-14778517D02*
X13282087Y-14768993D01*
X13282087Y-14768993D02*
X13272563Y-14749945D01*
X13272563Y-14749945D02*
X13272563Y-14692803D01*
X13272563Y-14692803D02*
X13282087Y-14673755D01*
X13282087Y-14673755D02*
X13291611Y-14664231D01*
X13291611Y-14664231D02*
X13310658Y-14654707D01*
X13310658Y-14654707D02*
X13339230Y-14654707D01*
X13339230Y-14654707D02*
X13358277Y-14664231D01*
X13358277Y-14664231D02*
X13367801Y-14673755D01*
X13367801Y-14673755D02*
X13377325Y-14692803D01*
X13377325Y-14692803D02*
X13377325Y-14749945D01*
X13377325Y-14749945D02*
X13367801Y-14768993D01*
X13367801Y-14768993D02*
X13358277Y-14778517D01*
X13358277Y-14778517D02*
X13339230Y-14788041D01*
X13339230Y-14788041D02*
X13310658Y-14788041D01*
X13434468Y-14654707D02*
X13510658Y-14654707D01*
X13463039Y-14588041D02*
X13463039Y-14759469D01*
X13463039Y-14759469D02*
X13472563Y-14778517D01*
X13472563Y-14778517D02*
X13491611Y-14788041D01*
X13491611Y-14788041D02*
X13510658Y-14788041D01*
X13729706Y-14654707D02*
X13729706Y-14854707D01*
X13729706Y-14664231D02*
X13748753Y-14654707D01*
X13748753Y-14654707D02*
X13786849Y-14654707D01*
X13786849Y-14654707D02*
X13805896Y-14664231D01*
X13805896Y-14664231D02*
X13815420Y-14673755D01*
X13815420Y-14673755D02*
X13824944Y-14692803D01*
X13824944Y-14692803D02*
X13824944Y-14749945D01*
X13824944Y-14749945D02*
X13815420Y-14768993D01*
X13815420Y-14768993D02*
X13805896Y-14778517D01*
X13805896Y-14778517D02*
X13786849Y-14788041D01*
X13786849Y-14788041D02*
X13748753Y-14788041D01*
X13748753Y-14788041D02*
X13729706Y-14778517D01*
X13939230Y-14788041D02*
X13920182Y-14778517D01*
X13920182Y-14778517D02*
X13910658Y-14759469D01*
X13910658Y-14759469D02*
X13910658Y-14588041D01*
X14101134Y-14788041D02*
X14101134Y-14683279D01*
X14101134Y-14683279D02*
X14091611Y-14664231D01*
X14091611Y-14664231D02*
X14072563Y-14654707D01*
X14072563Y-14654707D02*
X14034468Y-14654707D01*
X14034468Y-14654707D02*
X14015420Y-14664231D01*
X14101134Y-14778517D02*
X14082087Y-14788041D01*
X14082087Y-14788041D02*
X14034468Y-14788041D01*
X14034468Y-14788041D02*
X14015420Y-14778517D01*
X14015420Y-14778517D02*
X14005896Y-14759469D01*
X14005896Y-14759469D02*
X14005896Y-14740422D01*
X14005896Y-14740422D02*
X14015420Y-14721374D01*
X14015420Y-14721374D02*
X14034468Y-14711850D01*
X14034468Y-14711850D02*
X14082087Y-14711850D01*
X14082087Y-14711850D02*
X14101134Y-14702326D01*
X14167801Y-14654707D02*
X14243992Y-14654707D01*
X14196373Y-14588041D02*
X14196373Y-14759469D01*
X14196373Y-14759469D02*
X14205896Y-14778517D01*
X14205896Y-14778517D02*
X14224944Y-14788041D01*
X14224944Y-14788041D02*
X14243992Y-14788041D01*
X14386849Y-14778517D02*
X14367801Y-14788041D01*
X14367801Y-14788041D02*
X14329706Y-14788041D01*
X14329706Y-14788041D02*
X14310658Y-14778517D01*
X14310658Y-14778517D02*
X14301134Y-14759469D01*
X14301134Y-14759469D02*
X14301134Y-14683279D01*
X14301134Y-14683279D02*
X14310658Y-14664231D01*
X14310658Y-14664231D02*
X14329706Y-14654707D01*
X14329706Y-14654707D02*
X14367801Y-14654707D01*
X14367801Y-14654707D02*
X14386849Y-14664231D01*
X14386849Y-14664231D02*
X14396373Y-14683279D01*
X14396373Y-14683279D02*
X14396373Y-14702326D01*
X14396373Y-14702326D02*
X14301134Y-14721374D01*
X14567801Y-14788041D02*
X14567801Y-14588041D01*
X14567801Y-14778517D02*
X14548754Y-14788041D01*
X14548754Y-14788041D02*
X14510658Y-14788041D01*
X14510658Y-14788041D02*
X14491611Y-14778517D01*
X14491611Y-14778517D02*
X14482087Y-14768993D01*
X14482087Y-14768993D02*
X14472563Y-14749945D01*
X14472563Y-14749945D02*
X14472563Y-14692803D01*
X14472563Y-14692803D02*
X14482087Y-14673755D01*
X14482087Y-14673755D02*
X14491611Y-14664231D01*
X14491611Y-14664231D02*
X14510658Y-14654707D01*
X14510658Y-14654707D02*
X14548754Y-14654707D01*
X14548754Y-14654707D02*
X14567801Y-14664231D01*
X14643992Y-14864231D02*
X14653515Y-14854707D01*
X14653515Y-14854707D02*
X14672563Y-14826136D01*
X14672563Y-14826136D02*
X14682087Y-14807088D01*
X14682087Y-14807088D02*
X14691611Y-14778517D01*
X14691611Y-14778517D02*
X14701134Y-14730898D01*
X14701134Y-14730898D02*
X14701134Y-14692803D01*
X14701134Y-14692803D02*
X14691611Y-14645183D01*
X14691611Y-14645183D02*
X14682087Y-14616612D01*
X14682087Y-14616612D02*
X14672563Y-14597564D01*
X14672563Y-14597564D02*
X14653515Y-14568993D01*
X14653515Y-14568993D02*
X14643992Y-14559469D01*
X7697500Y-14991557D02*
G75*
G02*
X7497500Y-14991557I-100000J0D01*
G01*
X7497500Y-14991557D02*
G75*
G02*
X7697500Y-14991557I100000J0D01*
G01*
X7939229Y-14883041D02*
X8063039Y-14883041D01*
X8063039Y-14883041D02*
X7996372Y-14959231D01*
X7996372Y-14959231D02*
X8024943Y-14959231D01*
X8024943Y-14959231D02*
X8043991Y-14968755D01*
X8043991Y-14968755D02*
X8053515Y-14978279D01*
X8053515Y-14978279D02*
X8063039Y-14997326D01*
X8063039Y-14997326D02*
X8063039Y-15044945D01*
X8063039Y-15044945D02*
X8053515Y-15063993D01*
X8053515Y-15063993D02*
X8043991Y-15073517D01*
X8043991Y-15073517D02*
X8024943Y-15083041D01*
X8024943Y-15083041D02*
X7967801Y-15083041D01*
X7967801Y-15083041D02*
X7948753Y-15073517D01*
X7948753Y-15073517D02*
X7939229Y-15063993D01*
X8148753Y-15063993D02*
X8158277Y-15073517D01*
X8158277Y-15073517D02*
X8148753Y-15083041D01*
X8148753Y-15083041D02*
X8139229Y-15073517D01*
X8139229Y-15073517D02*
X8148753Y-15063993D01*
X8148753Y-15063993D02*
X8148753Y-15083041D01*
X8282086Y-14883041D02*
X8301134Y-14883041D01*
X8301134Y-14883041D02*
X8320182Y-14892564D01*
X8320182Y-14892564D02*
X8329705Y-14902088D01*
X8329705Y-14902088D02*
X8339229Y-14921136D01*
X8339229Y-14921136D02*
X8348753Y-14959231D01*
X8348753Y-14959231D02*
X8348753Y-15006850D01*
X8348753Y-15006850D02*
X8339229Y-15044945D01*
X8339229Y-15044945D02*
X8329705Y-15063993D01*
X8329705Y-15063993D02*
X8320182Y-15073517D01*
X8320182Y-15073517D02*
X8301134Y-15083041D01*
X8301134Y-15083041D02*
X8282086Y-15083041D01*
X8282086Y-15083041D02*
X8263039Y-15073517D01*
X8263039Y-15073517D02*
X8253515Y-15063993D01*
X8253515Y-15063993D02*
X8243991Y-15044945D01*
X8243991Y-15044945D02*
X8234467Y-15006850D01*
X8234467Y-15006850D02*
X8234467Y-14959231D01*
X8234467Y-14959231D02*
X8243991Y-14921136D01*
X8243991Y-14921136D02*
X8253515Y-14902088D01*
X8253515Y-14902088D02*
X8263039Y-14892564D01*
X8263039Y-14892564D02*
X8282086Y-14883041D01*
X8529705Y-14883041D02*
X8434467Y-14883041D01*
X8434467Y-14883041D02*
X8424944Y-14978279D01*
X8424944Y-14978279D02*
X8434467Y-14968755D01*
X8434467Y-14968755D02*
X8453515Y-14959231D01*
X8453515Y-14959231D02*
X8501134Y-14959231D01*
X8501134Y-14959231D02*
X8520182Y-14968755D01*
X8520182Y-14968755D02*
X8529705Y-14978279D01*
X8529705Y-14978279D02*
X8539229Y-14997326D01*
X8539229Y-14997326D02*
X8539229Y-15044945D01*
X8539229Y-15044945D02*
X8529705Y-15063993D01*
X8529705Y-15063993D02*
X8520182Y-15073517D01*
X8520182Y-15073517D02*
X8501134Y-15083041D01*
X8501134Y-15083041D02*
X8453515Y-15083041D01*
X8453515Y-15083041D02*
X8434467Y-15073517D01*
X8434467Y-15073517D02*
X8424944Y-15063993D01*
X8663039Y-14883041D02*
X8682086Y-14883041D01*
X8682086Y-14883041D02*
X8701134Y-14892564D01*
X8701134Y-14892564D02*
X8710658Y-14902088D01*
X8710658Y-14902088D02*
X8720182Y-14921136D01*
X8720182Y-14921136D02*
X8729705Y-14959231D01*
X8729705Y-14959231D02*
X8729705Y-15006850D01*
X8729705Y-15006850D02*
X8720182Y-15044945D01*
X8720182Y-15044945D02*
X8710658Y-15063993D01*
X8710658Y-15063993D02*
X8701134Y-15073517D01*
X8701134Y-15073517D02*
X8682086Y-15083041D01*
X8682086Y-15083041D02*
X8663039Y-15083041D01*
X8663039Y-15083041D02*
X8643991Y-15073517D01*
X8643991Y-15073517D02*
X8634467Y-15063993D01*
X8634467Y-15063993D02*
X8624944Y-15044945D01*
X8624944Y-15044945D02*
X8615420Y-15006850D01*
X8615420Y-15006850D02*
X8615420Y-14959231D01*
X8615420Y-14959231D02*
X8624944Y-14921136D01*
X8624944Y-14921136D02*
X8634467Y-14902088D01*
X8634467Y-14902088D02*
X8643991Y-14892564D01*
X8643991Y-14892564D02*
X8663039Y-14883041D01*
X8815420Y-15083041D02*
X8815420Y-14949707D01*
X8815420Y-14968755D02*
X8824944Y-14959231D01*
X8824944Y-14959231D02*
X8843991Y-14949707D01*
X8843991Y-14949707D02*
X8872563Y-14949707D01*
X8872563Y-14949707D02*
X8891610Y-14959231D01*
X8891610Y-14959231D02*
X8901134Y-14978279D01*
X8901134Y-14978279D02*
X8901134Y-15083041D01*
X8901134Y-14978279D02*
X8910658Y-14959231D01*
X8910658Y-14959231D02*
X8929705Y-14949707D01*
X8929705Y-14949707D02*
X8958277Y-14949707D01*
X8958277Y-14949707D02*
X8977325Y-14959231D01*
X8977325Y-14959231D02*
X8986848Y-14978279D01*
X8986848Y-14978279D02*
X8986848Y-15083041D01*
X9082086Y-15083041D02*
X9082086Y-14949707D01*
X9082086Y-14968755D02*
X9091610Y-14959231D01*
X9091610Y-14959231D02*
X9110658Y-14949707D01*
X9110658Y-14949707D02*
X9139229Y-14949707D01*
X9139229Y-14949707D02*
X9158277Y-14959231D01*
X9158277Y-14959231D02*
X9167801Y-14978279D01*
X9167801Y-14978279D02*
X9167801Y-15083041D01*
X9167801Y-14978279D02*
X9177325Y-14959231D01*
X9177325Y-14959231D02*
X9196372Y-14949707D01*
X9196372Y-14949707D02*
X9224944Y-14949707D01*
X9224944Y-14949707D02*
X9243991Y-14959231D01*
X9243991Y-14959231D02*
X9253515Y-14978279D01*
X9253515Y-14978279D02*
X9253515Y-15083041D01*
X9643991Y-14873517D02*
X9472563Y-15130660D01*
X9901134Y-14883041D02*
X9920182Y-14883041D01*
X9920182Y-14883041D02*
X9939229Y-14892564D01*
X9939229Y-14892564D02*
X9948753Y-14902088D01*
X9948753Y-14902088D02*
X9958277Y-14921136D01*
X9958277Y-14921136D02*
X9967801Y-14959231D01*
X9967801Y-14959231D02*
X9967801Y-15006850D01*
X9967801Y-15006850D02*
X9958277Y-15044945D01*
X9958277Y-15044945D02*
X9948753Y-15063993D01*
X9948753Y-15063993D02*
X9939229Y-15073517D01*
X9939229Y-15073517D02*
X9920182Y-15083041D01*
X9920182Y-15083041D02*
X9901134Y-15083041D01*
X9901134Y-15083041D02*
X9882087Y-15073517D01*
X9882087Y-15073517D02*
X9872563Y-15063993D01*
X9872563Y-15063993D02*
X9863039Y-15044945D01*
X9863039Y-15044945D02*
X9853515Y-15006850D01*
X9853515Y-15006850D02*
X9853515Y-14959231D01*
X9853515Y-14959231D02*
X9863039Y-14921136D01*
X9863039Y-14921136D02*
X9872563Y-14902088D01*
X9872563Y-14902088D02*
X9882087Y-14892564D01*
X9882087Y-14892564D02*
X9901134Y-14883041D01*
X10053515Y-15063993D02*
X10063039Y-15073517D01*
X10063039Y-15073517D02*
X10053515Y-15083041D01*
X10053515Y-15083041D02*
X10043991Y-15073517D01*
X10043991Y-15073517D02*
X10053515Y-15063993D01*
X10053515Y-15063993D02*
X10053515Y-15083041D01*
X10253515Y-15083041D02*
X10139229Y-15083041D01*
X10196372Y-15083041D02*
X10196372Y-14883041D01*
X10196372Y-14883041D02*
X10177325Y-14911612D01*
X10177325Y-14911612D02*
X10158277Y-14930660D01*
X10158277Y-14930660D02*
X10139229Y-14940183D01*
X10329706Y-14902088D02*
X10339229Y-14892564D01*
X10339229Y-14892564D02*
X10358277Y-14883041D01*
X10358277Y-14883041D02*
X10405896Y-14883041D01*
X10405896Y-14883041D02*
X10424944Y-14892564D01*
X10424944Y-14892564D02*
X10434468Y-14902088D01*
X10434468Y-14902088D02*
X10443991Y-14921136D01*
X10443991Y-14921136D02*
X10443991Y-14940183D01*
X10443991Y-14940183D02*
X10434468Y-14968755D01*
X10434468Y-14968755D02*
X10320182Y-15083041D01*
X10320182Y-15083041D02*
X10443991Y-15083041D01*
X10567801Y-14883041D02*
X10586849Y-14883041D01*
X10586849Y-14883041D02*
X10605896Y-14892564D01*
X10605896Y-14892564D02*
X10615420Y-14902088D01*
X10615420Y-14902088D02*
X10624944Y-14921136D01*
X10624944Y-14921136D02*
X10634468Y-14959231D01*
X10634468Y-14959231D02*
X10634468Y-15006850D01*
X10634468Y-15006850D02*
X10624944Y-15044945D01*
X10624944Y-15044945D02*
X10615420Y-15063993D01*
X10615420Y-15063993D02*
X10605896Y-15073517D01*
X10605896Y-15073517D02*
X10586849Y-15083041D01*
X10586849Y-15083041D02*
X10567801Y-15083041D01*
X10567801Y-15083041D02*
X10548753Y-15073517D01*
X10548753Y-15073517D02*
X10539229Y-15063993D01*
X10539229Y-15063993D02*
X10529706Y-15044945D01*
X10529706Y-15044945D02*
X10520182Y-15006850D01*
X10520182Y-15006850D02*
X10520182Y-14959231D01*
X10520182Y-14959231D02*
X10529706Y-14921136D01*
X10529706Y-14921136D02*
X10539229Y-14902088D01*
X10539229Y-14902088D02*
X10548753Y-14892564D01*
X10548753Y-14892564D02*
X10567801Y-14883041D01*
X10824944Y-15083041D02*
X10710658Y-15083041D01*
X10767801Y-15083041D02*
X10767801Y-14883041D01*
X10767801Y-14883041D02*
X10748753Y-14911612D01*
X10748753Y-14911612D02*
X10729706Y-14930660D01*
X10729706Y-14930660D02*
X10710658Y-14940183D01*
X10901134Y-14883041D02*
X10901134Y-14921136D01*
X10977325Y-14883041D02*
X10977325Y-14921136D01*
X11272563Y-15159231D02*
X11263039Y-15149707D01*
X11263039Y-15149707D02*
X11243991Y-15121136D01*
X11243991Y-15121136D02*
X11234468Y-15102088D01*
X11234468Y-15102088D02*
X11224944Y-15073517D01*
X11224944Y-15073517D02*
X11215420Y-15025898D01*
X11215420Y-15025898D02*
X11215420Y-14987803D01*
X11215420Y-14987803D02*
X11224944Y-14940183D01*
X11224944Y-14940183D02*
X11234468Y-14911612D01*
X11234468Y-14911612D02*
X11243991Y-14892564D01*
X11243991Y-14892564D02*
X11263039Y-14863993D01*
X11263039Y-14863993D02*
X11272563Y-14854469D01*
X11377325Y-14968755D02*
X11358277Y-14959231D01*
X11358277Y-14959231D02*
X11348753Y-14949707D01*
X11348753Y-14949707D02*
X11339229Y-14930660D01*
X11339229Y-14930660D02*
X11339229Y-14921136D01*
X11339229Y-14921136D02*
X11348753Y-14902088D01*
X11348753Y-14902088D02*
X11358277Y-14892564D01*
X11358277Y-14892564D02*
X11377325Y-14883041D01*
X11377325Y-14883041D02*
X11415420Y-14883041D01*
X11415420Y-14883041D02*
X11434468Y-14892564D01*
X11434468Y-14892564D02*
X11443991Y-14902088D01*
X11443991Y-14902088D02*
X11453515Y-14921136D01*
X11453515Y-14921136D02*
X11453515Y-14930660D01*
X11453515Y-14930660D02*
X11443991Y-14949707D01*
X11443991Y-14949707D02*
X11434468Y-14959231D01*
X11434468Y-14959231D02*
X11415420Y-14968755D01*
X11415420Y-14968755D02*
X11377325Y-14968755D01*
X11377325Y-14968755D02*
X11358277Y-14978279D01*
X11358277Y-14978279D02*
X11348753Y-14987803D01*
X11348753Y-14987803D02*
X11339229Y-15006850D01*
X11339229Y-15006850D02*
X11339229Y-15044945D01*
X11339229Y-15044945D02*
X11348753Y-15063993D01*
X11348753Y-15063993D02*
X11358277Y-15073517D01*
X11358277Y-15073517D02*
X11377325Y-15083041D01*
X11377325Y-15083041D02*
X11415420Y-15083041D01*
X11415420Y-15083041D02*
X11434468Y-15073517D01*
X11434468Y-15073517D02*
X11443991Y-15063993D01*
X11443991Y-15063993D02*
X11453515Y-15044945D01*
X11453515Y-15044945D02*
X11453515Y-15006850D01*
X11453515Y-15006850D02*
X11443991Y-14987803D01*
X11443991Y-14987803D02*
X11434468Y-14978279D01*
X11434468Y-14978279D02*
X11415420Y-14968755D01*
X11624944Y-14949707D02*
X11624944Y-15083041D01*
X11577325Y-14873517D02*
X11529706Y-15016374D01*
X11529706Y-15016374D02*
X11653515Y-15016374D01*
X11882087Y-15083041D02*
X11882087Y-14883041D01*
X11967801Y-15083041D02*
X11967801Y-14978279D01*
X11967801Y-14978279D02*
X11958277Y-14959231D01*
X11958277Y-14959231D02*
X11939230Y-14949707D01*
X11939230Y-14949707D02*
X11910658Y-14949707D01*
X11910658Y-14949707D02*
X11891610Y-14959231D01*
X11891610Y-14959231D02*
X11882087Y-14968755D01*
X12091610Y-15083041D02*
X12072563Y-15073517D01*
X12072563Y-15073517D02*
X12063039Y-15063993D01*
X12063039Y-15063993D02*
X12053515Y-15044945D01*
X12053515Y-15044945D02*
X12053515Y-14987803D01*
X12053515Y-14987803D02*
X12063039Y-14968755D01*
X12063039Y-14968755D02*
X12072563Y-14959231D01*
X12072563Y-14959231D02*
X12091610Y-14949707D01*
X12091610Y-14949707D02*
X12120182Y-14949707D01*
X12120182Y-14949707D02*
X12139230Y-14959231D01*
X12139230Y-14959231D02*
X12148753Y-14968755D01*
X12148753Y-14968755D02*
X12158277Y-14987803D01*
X12158277Y-14987803D02*
X12158277Y-15044945D01*
X12158277Y-15044945D02*
X12148753Y-15063993D01*
X12148753Y-15063993D02*
X12139230Y-15073517D01*
X12139230Y-15073517D02*
X12120182Y-15083041D01*
X12120182Y-15083041D02*
X12091610Y-15083041D01*
X12272563Y-15083041D02*
X12253515Y-15073517D01*
X12253515Y-15073517D02*
X12243991Y-15054469D01*
X12243991Y-15054469D02*
X12243991Y-14883041D01*
X12424944Y-15073517D02*
X12405896Y-15083041D01*
X12405896Y-15083041D02*
X12367801Y-15083041D01*
X12367801Y-15083041D02*
X12348753Y-15073517D01*
X12348753Y-15073517D02*
X12339230Y-15054469D01*
X12339230Y-15054469D02*
X12339230Y-14978279D01*
X12339230Y-14978279D02*
X12348753Y-14959231D01*
X12348753Y-14959231D02*
X12367801Y-14949707D01*
X12367801Y-14949707D02*
X12405896Y-14949707D01*
X12405896Y-14949707D02*
X12424944Y-14959231D01*
X12424944Y-14959231D02*
X12434468Y-14978279D01*
X12434468Y-14978279D02*
X12434468Y-14997326D01*
X12434468Y-14997326D02*
X12339230Y-15016374D01*
X12510658Y-15073517D02*
X12529706Y-15083041D01*
X12529706Y-15083041D02*
X12567801Y-15083041D01*
X12567801Y-15083041D02*
X12586849Y-15073517D01*
X12586849Y-15073517D02*
X12596372Y-15054469D01*
X12596372Y-15054469D02*
X12596372Y-15044945D01*
X12596372Y-15044945D02*
X12586849Y-15025898D01*
X12586849Y-15025898D02*
X12567801Y-15016374D01*
X12567801Y-15016374D02*
X12539230Y-15016374D01*
X12539230Y-15016374D02*
X12520182Y-15006850D01*
X12520182Y-15006850D02*
X12510658Y-14987803D01*
X12510658Y-14987803D02*
X12510658Y-14978279D01*
X12510658Y-14978279D02*
X12520182Y-14959231D01*
X12520182Y-14959231D02*
X12539230Y-14949707D01*
X12539230Y-14949707D02*
X12567801Y-14949707D01*
X12567801Y-14949707D02*
X12586849Y-14959231D01*
X12663039Y-15159231D02*
X12672563Y-15149707D01*
X12672563Y-15149707D02*
X12691611Y-15121136D01*
X12691611Y-15121136D02*
X12701134Y-15102088D01*
X12701134Y-15102088D02*
X12710658Y-15073517D01*
X12710658Y-15073517D02*
X12720182Y-15025898D01*
X12720182Y-15025898D02*
X12720182Y-14987803D01*
X12720182Y-14987803D02*
X12710658Y-14940183D01*
X12710658Y-14940183D02*
X12701134Y-14911612D01*
X12701134Y-14911612D02*
X12691611Y-14892564D01*
X12691611Y-14892564D02*
X12672563Y-14863993D01*
X12672563Y-14863993D02*
X12663039Y-14854469D01*
X13024944Y-15159231D02*
X13015420Y-15149707D01*
X13015420Y-15149707D02*
X12996372Y-15121136D01*
X12996372Y-15121136D02*
X12986849Y-15102088D01*
X12986849Y-15102088D02*
X12977325Y-15073517D01*
X12977325Y-15073517D02*
X12967801Y-15025898D01*
X12967801Y-15025898D02*
X12967801Y-14987803D01*
X12967801Y-14987803D02*
X12977325Y-14940183D01*
X12977325Y-14940183D02*
X12986849Y-14911612D01*
X12986849Y-14911612D02*
X12996372Y-14892564D01*
X12996372Y-14892564D02*
X13015420Y-14863993D01*
X13015420Y-14863993D02*
X13024944Y-14854469D01*
X13101134Y-14949707D02*
X13101134Y-15083041D01*
X13101134Y-14968755D02*
X13110658Y-14959231D01*
X13110658Y-14959231D02*
X13129706Y-14949707D01*
X13129706Y-14949707D02*
X13158277Y-14949707D01*
X13158277Y-14949707D02*
X13177325Y-14959231D01*
X13177325Y-14959231D02*
X13186849Y-14978279D01*
X13186849Y-14978279D02*
X13186849Y-15083041D01*
X13310658Y-15083041D02*
X13291611Y-15073517D01*
X13291611Y-15073517D02*
X13282087Y-15063993D01*
X13282087Y-15063993D02*
X13272563Y-15044945D01*
X13272563Y-15044945D02*
X13272563Y-14987803D01*
X13272563Y-14987803D02*
X13282087Y-14968755D01*
X13282087Y-14968755D02*
X13291611Y-14959231D01*
X13291611Y-14959231D02*
X13310658Y-14949707D01*
X13310658Y-14949707D02*
X13339230Y-14949707D01*
X13339230Y-14949707D02*
X13358277Y-14959231D01*
X13358277Y-14959231D02*
X13367801Y-14968755D01*
X13367801Y-14968755D02*
X13377325Y-14987803D01*
X13377325Y-14987803D02*
X13377325Y-15044945D01*
X13377325Y-15044945D02*
X13367801Y-15063993D01*
X13367801Y-15063993D02*
X13358277Y-15073517D01*
X13358277Y-15073517D02*
X13339230Y-15083041D01*
X13339230Y-15083041D02*
X13310658Y-15083041D01*
X13434468Y-14949707D02*
X13510658Y-14949707D01*
X13463039Y-14883041D02*
X13463039Y-15054469D01*
X13463039Y-15054469D02*
X13472563Y-15073517D01*
X13472563Y-15073517D02*
X13491611Y-15083041D01*
X13491611Y-15083041D02*
X13510658Y-15083041D01*
X13729706Y-14949707D02*
X13729706Y-15149707D01*
X13729706Y-14959231D02*
X13748753Y-14949707D01*
X13748753Y-14949707D02*
X13786849Y-14949707D01*
X13786849Y-14949707D02*
X13805896Y-14959231D01*
X13805896Y-14959231D02*
X13815420Y-14968755D01*
X13815420Y-14968755D02*
X13824944Y-14987803D01*
X13824944Y-14987803D02*
X13824944Y-15044945D01*
X13824944Y-15044945D02*
X13815420Y-15063993D01*
X13815420Y-15063993D02*
X13805896Y-15073517D01*
X13805896Y-15073517D02*
X13786849Y-15083041D01*
X13786849Y-15083041D02*
X13748753Y-15083041D01*
X13748753Y-15083041D02*
X13729706Y-15073517D01*
X13939230Y-15083041D02*
X13920182Y-15073517D01*
X13920182Y-15073517D02*
X13910658Y-15054469D01*
X13910658Y-15054469D02*
X13910658Y-14883041D01*
X14101134Y-15083041D02*
X14101134Y-14978279D01*
X14101134Y-14978279D02*
X14091611Y-14959231D01*
X14091611Y-14959231D02*
X14072563Y-14949707D01*
X14072563Y-14949707D02*
X14034468Y-14949707D01*
X14034468Y-14949707D02*
X14015420Y-14959231D01*
X14101134Y-15073517D02*
X14082087Y-15083041D01*
X14082087Y-15083041D02*
X14034468Y-15083041D01*
X14034468Y-15083041D02*
X14015420Y-15073517D01*
X14015420Y-15073517D02*
X14005896Y-15054469D01*
X14005896Y-15054469D02*
X14005896Y-15035422D01*
X14005896Y-15035422D02*
X14015420Y-15016374D01*
X14015420Y-15016374D02*
X14034468Y-15006850D01*
X14034468Y-15006850D02*
X14082087Y-15006850D01*
X14082087Y-15006850D02*
X14101134Y-14997326D01*
X14167801Y-14949707D02*
X14243992Y-14949707D01*
X14196373Y-14883041D02*
X14196373Y-15054469D01*
X14196373Y-15054469D02*
X14205896Y-15073517D01*
X14205896Y-15073517D02*
X14224944Y-15083041D01*
X14224944Y-15083041D02*
X14243992Y-15083041D01*
X14386849Y-15073517D02*
X14367801Y-15083041D01*
X14367801Y-15083041D02*
X14329706Y-15083041D01*
X14329706Y-15083041D02*
X14310658Y-15073517D01*
X14310658Y-15073517D02*
X14301134Y-15054469D01*
X14301134Y-15054469D02*
X14301134Y-14978279D01*
X14301134Y-14978279D02*
X14310658Y-14959231D01*
X14310658Y-14959231D02*
X14329706Y-14949707D01*
X14329706Y-14949707D02*
X14367801Y-14949707D01*
X14367801Y-14949707D02*
X14386849Y-14959231D01*
X14386849Y-14959231D02*
X14396373Y-14978279D01*
X14396373Y-14978279D02*
X14396373Y-14997326D01*
X14396373Y-14997326D02*
X14301134Y-15016374D01*
X14567801Y-15083041D02*
X14567801Y-14883041D01*
X14567801Y-15073517D02*
X14548754Y-15083041D01*
X14548754Y-15083041D02*
X14510658Y-15083041D01*
X14510658Y-15083041D02*
X14491611Y-15073517D01*
X14491611Y-15073517D02*
X14482087Y-15063993D01*
X14482087Y-15063993D02*
X14472563Y-15044945D01*
X14472563Y-15044945D02*
X14472563Y-14987803D01*
X14472563Y-14987803D02*
X14482087Y-14968755D01*
X14482087Y-14968755D02*
X14491611Y-14959231D01*
X14491611Y-14959231D02*
X14510658Y-14949707D01*
X14510658Y-14949707D02*
X14548754Y-14949707D01*
X14548754Y-14949707D02*
X14567801Y-14959231D01*
X14643992Y-15159231D02*
X14653515Y-15149707D01*
X14653515Y-15149707D02*
X14672563Y-15121136D01*
X14672563Y-15121136D02*
X14682087Y-15102088D01*
X14682087Y-15102088D02*
X14691611Y-15073517D01*
X14691611Y-15073517D02*
X14701134Y-15025898D01*
X14701134Y-15025898D02*
X14701134Y-14987803D01*
X14701134Y-14987803D02*
X14691611Y-14940183D01*
X14691611Y-14940183D02*
X14682087Y-14911612D01*
X14682087Y-14911612D02*
X14672563Y-14892564D01*
X14672563Y-14892564D02*
X14653515Y-14863993D01*
X14653515Y-14863993D02*
X14643992Y-14854469D01*
X7597500Y-15211557D02*
X7597500Y-15411557D01*
X7497500Y-15311557D02*
X7697500Y-15311557D01*
X7939229Y-15203041D02*
X8063039Y-15203041D01*
X8063039Y-15203041D02*
X7996372Y-15279231D01*
X7996372Y-15279231D02*
X8024943Y-15279231D01*
X8024943Y-15279231D02*
X8043991Y-15288755D01*
X8043991Y-15288755D02*
X8053515Y-15298279D01*
X8053515Y-15298279D02*
X8063039Y-15317326D01*
X8063039Y-15317326D02*
X8063039Y-15364945D01*
X8063039Y-15364945D02*
X8053515Y-15383993D01*
X8053515Y-15383993D02*
X8043991Y-15393517D01*
X8043991Y-15393517D02*
X8024943Y-15403041D01*
X8024943Y-15403041D02*
X7967801Y-15403041D01*
X7967801Y-15403041D02*
X7948753Y-15393517D01*
X7948753Y-15393517D02*
X7939229Y-15383993D01*
X8148753Y-15383993D02*
X8158277Y-15393517D01*
X8158277Y-15393517D02*
X8148753Y-15403041D01*
X8148753Y-15403041D02*
X8139229Y-15393517D01*
X8139229Y-15393517D02*
X8148753Y-15383993D01*
X8148753Y-15383993D02*
X8148753Y-15403041D01*
X8234467Y-15222088D02*
X8243991Y-15212564D01*
X8243991Y-15212564D02*
X8263039Y-15203041D01*
X8263039Y-15203041D02*
X8310658Y-15203041D01*
X8310658Y-15203041D02*
X8329705Y-15212564D01*
X8329705Y-15212564D02*
X8339229Y-15222088D01*
X8339229Y-15222088D02*
X8348753Y-15241136D01*
X8348753Y-15241136D02*
X8348753Y-15260183D01*
X8348753Y-15260183D02*
X8339229Y-15288755D01*
X8339229Y-15288755D02*
X8224943Y-15403041D01*
X8224943Y-15403041D02*
X8348753Y-15403041D01*
X8472563Y-15203041D02*
X8491610Y-15203041D01*
X8491610Y-15203041D02*
X8510658Y-15212564D01*
X8510658Y-15212564D02*
X8520182Y-15222088D01*
X8520182Y-15222088D02*
X8529705Y-15241136D01*
X8529705Y-15241136D02*
X8539229Y-15279231D01*
X8539229Y-15279231D02*
X8539229Y-15326850D01*
X8539229Y-15326850D02*
X8529705Y-15364945D01*
X8529705Y-15364945D02*
X8520182Y-15383993D01*
X8520182Y-15383993D02*
X8510658Y-15393517D01*
X8510658Y-15393517D02*
X8491610Y-15403041D01*
X8491610Y-15403041D02*
X8472563Y-15403041D01*
X8472563Y-15403041D02*
X8453515Y-15393517D01*
X8453515Y-15393517D02*
X8443991Y-15383993D01*
X8443991Y-15383993D02*
X8434467Y-15364945D01*
X8434467Y-15364945D02*
X8424944Y-15326850D01*
X8424944Y-15326850D02*
X8424944Y-15279231D01*
X8424944Y-15279231D02*
X8434467Y-15241136D01*
X8434467Y-15241136D02*
X8443991Y-15222088D01*
X8443991Y-15222088D02*
X8453515Y-15212564D01*
X8453515Y-15212564D02*
X8472563Y-15203041D01*
X8663039Y-15203041D02*
X8682086Y-15203041D01*
X8682086Y-15203041D02*
X8701134Y-15212564D01*
X8701134Y-15212564D02*
X8710658Y-15222088D01*
X8710658Y-15222088D02*
X8720182Y-15241136D01*
X8720182Y-15241136D02*
X8729705Y-15279231D01*
X8729705Y-15279231D02*
X8729705Y-15326850D01*
X8729705Y-15326850D02*
X8720182Y-15364945D01*
X8720182Y-15364945D02*
X8710658Y-15383993D01*
X8710658Y-15383993D02*
X8701134Y-15393517D01*
X8701134Y-15393517D02*
X8682086Y-15403041D01*
X8682086Y-15403041D02*
X8663039Y-15403041D01*
X8663039Y-15403041D02*
X8643991Y-15393517D01*
X8643991Y-15393517D02*
X8634467Y-15383993D01*
X8634467Y-15383993D02*
X8624944Y-15364945D01*
X8624944Y-15364945D02*
X8615420Y-15326850D01*
X8615420Y-15326850D02*
X8615420Y-15279231D01*
X8615420Y-15279231D02*
X8624944Y-15241136D01*
X8624944Y-15241136D02*
X8634467Y-15222088D01*
X8634467Y-15222088D02*
X8643991Y-15212564D01*
X8643991Y-15212564D02*
X8663039Y-15203041D01*
X8815420Y-15403041D02*
X8815420Y-15269707D01*
X8815420Y-15288755D02*
X8824944Y-15279231D01*
X8824944Y-15279231D02*
X8843991Y-15269707D01*
X8843991Y-15269707D02*
X8872563Y-15269707D01*
X8872563Y-15269707D02*
X8891610Y-15279231D01*
X8891610Y-15279231D02*
X8901134Y-15298279D01*
X8901134Y-15298279D02*
X8901134Y-15403041D01*
X8901134Y-15298279D02*
X8910658Y-15279231D01*
X8910658Y-15279231D02*
X8929705Y-15269707D01*
X8929705Y-15269707D02*
X8958277Y-15269707D01*
X8958277Y-15269707D02*
X8977325Y-15279231D01*
X8977325Y-15279231D02*
X8986848Y-15298279D01*
X8986848Y-15298279D02*
X8986848Y-15403041D01*
X9082086Y-15403041D02*
X9082086Y-15269707D01*
X9082086Y-15288755D02*
X9091610Y-15279231D01*
X9091610Y-15279231D02*
X9110658Y-15269707D01*
X9110658Y-15269707D02*
X9139229Y-15269707D01*
X9139229Y-15269707D02*
X9158277Y-15279231D01*
X9158277Y-15279231D02*
X9167801Y-15298279D01*
X9167801Y-15298279D02*
X9167801Y-15403041D01*
X9167801Y-15298279D02*
X9177325Y-15279231D01*
X9177325Y-15279231D02*
X9196372Y-15269707D01*
X9196372Y-15269707D02*
X9224944Y-15269707D01*
X9224944Y-15269707D02*
X9243991Y-15279231D01*
X9243991Y-15279231D02*
X9253515Y-15298279D01*
X9253515Y-15298279D02*
X9253515Y-15403041D01*
X9643991Y-15193517D02*
X9472563Y-15450660D01*
X9901134Y-15203041D02*
X9920182Y-15203041D01*
X9920182Y-15203041D02*
X9939229Y-15212564D01*
X9939229Y-15212564D02*
X9948753Y-15222088D01*
X9948753Y-15222088D02*
X9958277Y-15241136D01*
X9958277Y-15241136D02*
X9967801Y-15279231D01*
X9967801Y-15279231D02*
X9967801Y-15326850D01*
X9967801Y-15326850D02*
X9958277Y-15364945D01*
X9958277Y-15364945D02*
X9948753Y-15383993D01*
X9948753Y-15383993D02*
X9939229Y-15393517D01*
X9939229Y-15393517D02*
X9920182Y-15403041D01*
X9920182Y-15403041D02*
X9901134Y-15403041D01*
X9901134Y-15403041D02*
X9882087Y-15393517D01*
X9882087Y-15393517D02*
X9872563Y-15383993D01*
X9872563Y-15383993D02*
X9863039Y-15364945D01*
X9863039Y-15364945D02*
X9853515Y-15326850D01*
X9853515Y-15326850D02*
X9853515Y-15279231D01*
X9853515Y-15279231D02*
X9863039Y-15241136D01*
X9863039Y-15241136D02*
X9872563Y-15222088D01*
X9872563Y-15222088D02*
X9882087Y-15212564D01*
X9882087Y-15212564D02*
X9901134Y-15203041D01*
X10053515Y-15383993D02*
X10063039Y-15393517D01*
X10063039Y-15393517D02*
X10053515Y-15403041D01*
X10053515Y-15403041D02*
X10043991Y-15393517D01*
X10043991Y-15393517D02*
X10053515Y-15383993D01*
X10053515Y-15383993D02*
X10053515Y-15403041D01*
X10253515Y-15403041D02*
X10139229Y-15403041D01*
X10196372Y-15403041D02*
X10196372Y-15203041D01*
X10196372Y-15203041D02*
X10177325Y-15231612D01*
X10177325Y-15231612D02*
X10158277Y-15250660D01*
X10158277Y-15250660D02*
X10139229Y-15260183D01*
X10329706Y-15222088D02*
X10339229Y-15212564D01*
X10339229Y-15212564D02*
X10358277Y-15203041D01*
X10358277Y-15203041D02*
X10405896Y-15203041D01*
X10405896Y-15203041D02*
X10424944Y-15212564D01*
X10424944Y-15212564D02*
X10434468Y-15222088D01*
X10434468Y-15222088D02*
X10443991Y-15241136D01*
X10443991Y-15241136D02*
X10443991Y-15260183D01*
X10443991Y-15260183D02*
X10434468Y-15288755D01*
X10434468Y-15288755D02*
X10320182Y-15403041D01*
X10320182Y-15403041D02*
X10443991Y-15403041D01*
X10615420Y-15203041D02*
X10577325Y-15203041D01*
X10577325Y-15203041D02*
X10558277Y-15212564D01*
X10558277Y-15212564D02*
X10548753Y-15222088D01*
X10548753Y-15222088D02*
X10529706Y-15250660D01*
X10529706Y-15250660D02*
X10520182Y-15288755D01*
X10520182Y-15288755D02*
X10520182Y-15364945D01*
X10520182Y-15364945D02*
X10529706Y-15383993D01*
X10529706Y-15383993D02*
X10539229Y-15393517D01*
X10539229Y-15393517D02*
X10558277Y-15403041D01*
X10558277Y-15403041D02*
X10596372Y-15403041D01*
X10596372Y-15403041D02*
X10615420Y-15393517D01*
X10615420Y-15393517D02*
X10624944Y-15383993D01*
X10624944Y-15383993D02*
X10634468Y-15364945D01*
X10634468Y-15364945D02*
X10634468Y-15317326D01*
X10634468Y-15317326D02*
X10624944Y-15298279D01*
X10624944Y-15298279D02*
X10615420Y-15288755D01*
X10615420Y-15288755D02*
X10596372Y-15279231D01*
X10596372Y-15279231D02*
X10558277Y-15279231D01*
X10558277Y-15279231D02*
X10539229Y-15288755D01*
X10539229Y-15288755D02*
X10529706Y-15298279D01*
X10529706Y-15298279D02*
X10520182Y-15317326D01*
X10758277Y-15203041D02*
X10777325Y-15203041D01*
X10777325Y-15203041D02*
X10796372Y-15212564D01*
X10796372Y-15212564D02*
X10805896Y-15222088D01*
X10805896Y-15222088D02*
X10815420Y-15241136D01*
X10815420Y-15241136D02*
X10824944Y-15279231D01*
X10824944Y-15279231D02*
X10824944Y-15326850D01*
X10824944Y-15326850D02*
X10815420Y-15364945D01*
X10815420Y-15364945D02*
X10805896Y-15383993D01*
X10805896Y-15383993D02*
X10796372Y-15393517D01*
X10796372Y-15393517D02*
X10777325Y-15403041D01*
X10777325Y-15403041D02*
X10758277Y-15403041D01*
X10758277Y-15403041D02*
X10739229Y-15393517D01*
X10739229Y-15393517D02*
X10729706Y-15383993D01*
X10729706Y-15383993D02*
X10720182Y-15364945D01*
X10720182Y-15364945D02*
X10710658Y-15326850D01*
X10710658Y-15326850D02*
X10710658Y-15279231D01*
X10710658Y-15279231D02*
X10720182Y-15241136D01*
X10720182Y-15241136D02*
X10729706Y-15222088D01*
X10729706Y-15222088D02*
X10739229Y-15212564D01*
X10739229Y-15212564D02*
X10758277Y-15203041D01*
X10901134Y-15203041D02*
X10901134Y-15241136D01*
X10977325Y-15203041D02*
X10977325Y-15241136D01*
X11272563Y-15479231D02*
X11263039Y-15469707D01*
X11263039Y-15469707D02*
X11243991Y-15441136D01*
X11243991Y-15441136D02*
X11234468Y-15422088D01*
X11234468Y-15422088D02*
X11224944Y-15393517D01*
X11224944Y-15393517D02*
X11215420Y-15345898D01*
X11215420Y-15345898D02*
X11215420Y-15307803D01*
X11215420Y-15307803D02*
X11224944Y-15260183D01*
X11224944Y-15260183D02*
X11234468Y-15231612D01*
X11234468Y-15231612D02*
X11243991Y-15212564D01*
X11243991Y-15212564D02*
X11263039Y-15183993D01*
X11263039Y-15183993D02*
X11272563Y-15174469D01*
X11434468Y-15269707D02*
X11434468Y-15403041D01*
X11386848Y-15193517D02*
X11339229Y-15336374D01*
X11339229Y-15336374D02*
X11463039Y-15336374D01*
X11691610Y-15403041D02*
X11691610Y-15203041D01*
X11777325Y-15403041D02*
X11777325Y-15298279D01*
X11777325Y-15298279D02*
X11767801Y-15279231D01*
X11767801Y-15279231D02*
X11748753Y-15269707D01*
X11748753Y-15269707D02*
X11720182Y-15269707D01*
X11720182Y-15269707D02*
X11701134Y-15279231D01*
X11701134Y-15279231D02*
X11691610Y-15288755D01*
X11901134Y-15403041D02*
X11882087Y-15393517D01*
X11882087Y-15393517D02*
X11872563Y-15383993D01*
X11872563Y-15383993D02*
X11863039Y-15364945D01*
X11863039Y-15364945D02*
X11863039Y-15307803D01*
X11863039Y-15307803D02*
X11872563Y-15288755D01*
X11872563Y-15288755D02*
X11882087Y-15279231D01*
X11882087Y-15279231D02*
X11901134Y-15269707D01*
X11901134Y-15269707D02*
X11929706Y-15269707D01*
X11929706Y-15269707D02*
X11948753Y-15279231D01*
X11948753Y-15279231D02*
X11958277Y-15288755D01*
X11958277Y-15288755D02*
X11967801Y-15307803D01*
X11967801Y-15307803D02*
X11967801Y-15364945D01*
X11967801Y-15364945D02*
X11958277Y-15383993D01*
X11958277Y-15383993D02*
X11948753Y-15393517D01*
X11948753Y-15393517D02*
X11929706Y-15403041D01*
X11929706Y-15403041D02*
X11901134Y-15403041D01*
X12082087Y-15403041D02*
X12063039Y-15393517D01*
X12063039Y-15393517D02*
X12053515Y-15374469D01*
X12053515Y-15374469D02*
X12053515Y-15203041D01*
X12234468Y-15393517D02*
X12215420Y-15403041D01*
X12215420Y-15403041D02*
X12177325Y-15403041D01*
X12177325Y-15403041D02*
X12158277Y-15393517D01*
X12158277Y-15393517D02*
X12148753Y-15374469D01*
X12148753Y-15374469D02*
X12148753Y-15298279D01*
X12148753Y-15298279D02*
X12158277Y-15279231D01*
X12158277Y-15279231D02*
X12177325Y-15269707D01*
X12177325Y-15269707D02*
X12215420Y-15269707D01*
X12215420Y-15269707D02*
X12234468Y-15279231D01*
X12234468Y-15279231D02*
X12243991Y-15298279D01*
X12243991Y-15298279D02*
X12243991Y-15317326D01*
X12243991Y-15317326D02*
X12148753Y-15336374D01*
X12320182Y-15393517D02*
X12339230Y-15403041D01*
X12339230Y-15403041D02*
X12377325Y-15403041D01*
X12377325Y-15403041D02*
X12396372Y-15393517D01*
X12396372Y-15393517D02*
X12405896Y-15374469D01*
X12405896Y-15374469D02*
X12405896Y-15364945D01*
X12405896Y-15364945D02*
X12396372Y-15345898D01*
X12396372Y-15345898D02*
X12377325Y-15336374D01*
X12377325Y-15336374D02*
X12348753Y-15336374D01*
X12348753Y-15336374D02*
X12329706Y-15326850D01*
X12329706Y-15326850D02*
X12320182Y-15307803D01*
X12320182Y-15307803D02*
X12320182Y-15298279D01*
X12320182Y-15298279D02*
X12329706Y-15279231D01*
X12329706Y-15279231D02*
X12348753Y-15269707D01*
X12348753Y-15269707D02*
X12377325Y-15269707D01*
X12377325Y-15269707D02*
X12396372Y-15279231D01*
X12472563Y-15479231D02*
X12482087Y-15469707D01*
X12482087Y-15469707D02*
X12501134Y-15441136D01*
X12501134Y-15441136D02*
X12510658Y-15422088D01*
X12510658Y-15422088D02*
X12520182Y-15393517D01*
X12520182Y-15393517D02*
X12529706Y-15345898D01*
X12529706Y-15345898D02*
X12529706Y-15307803D01*
X12529706Y-15307803D02*
X12520182Y-15260183D01*
X12520182Y-15260183D02*
X12510658Y-15231612D01*
X12510658Y-15231612D02*
X12501134Y-15212564D01*
X12501134Y-15212564D02*
X12482087Y-15183993D01*
X12482087Y-15183993D02*
X12472563Y-15174469D01*
X12834468Y-15479231D02*
X12824944Y-15469707D01*
X12824944Y-15469707D02*
X12805896Y-15441136D01*
X12805896Y-15441136D02*
X12796372Y-15422088D01*
X12796372Y-15422088D02*
X12786849Y-15393517D01*
X12786849Y-15393517D02*
X12777325Y-15345898D01*
X12777325Y-15345898D02*
X12777325Y-15307803D01*
X12777325Y-15307803D02*
X12786849Y-15260183D01*
X12786849Y-15260183D02*
X12796372Y-15231612D01*
X12796372Y-15231612D02*
X12805896Y-15212564D01*
X12805896Y-15212564D02*
X12824944Y-15183993D01*
X12824944Y-15183993D02*
X12834468Y-15174469D01*
X12910658Y-15269707D02*
X12910658Y-15403041D01*
X12910658Y-15288755D02*
X12920182Y-15279231D01*
X12920182Y-15279231D02*
X12939230Y-15269707D01*
X12939230Y-15269707D02*
X12967801Y-15269707D01*
X12967801Y-15269707D02*
X12986849Y-15279231D01*
X12986849Y-15279231D02*
X12996372Y-15298279D01*
X12996372Y-15298279D02*
X12996372Y-15403041D01*
X13120182Y-15403041D02*
X13101134Y-15393517D01*
X13101134Y-15393517D02*
X13091611Y-15383993D01*
X13091611Y-15383993D02*
X13082087Y-15364945D01*
X13082087Y-15364945D02*
X13082087Y-15307803D01*
X13082087Y-15307803D02*
X13091611Y-15288755D01*
X13091611Y-15288755D02*
X13101134Y-15279231D01*
X13101134Y-15279231D02*
X13120182Y-15269707D01*
X13120182Y-15269707D02*
X13148753Y-15269707D01*
X13148753Y-15269707D02*
X13167801Y-15279231D01*
X13167801Y-15279231D02*
X13177325Y-15288755D01*
X13177325Y-15288755D02*
X13186849Y-15307803D01*
X13186849Y-15307803D02*
X13186849Y-15364945D01*
X13186849Y-15364945D02*
X13177325Y-15383993D01*
X13177325Y-15383993D02*
X13167801Y-15393517D01*
X13167801Y-15393517D02*
X13148753Y-15403041D01*
X13148753Y-15403041D02*
X13120182Y-15403041D01*
X13243992Y-15269707D02*
X13320182Y-15269707D01*
X13272563Y-15203041D02*
X13272563Y-15374469D01*
X13272563Y-15374469D02*
X13282087Y-15393517D01*
X13282087Y-15393517D02*
X13301134Y-15403041D01*
X13301134Y-15403041D02*
X13320182Y-15403041D01*
X13539230Y-15269707D02*
X13539230Y-15469707D01*
X13539230Y-15279231D02*
X13558277Y-15269707D01*
X13558277Y-15269707D02*
X13596373Y-15269707D01*
X13596373Y-15269707D02*
X13615420Y-15279231D01*
X13615420Y-15279231D02*
X13624944Y-15288755D01*
X13624944Y-15288755D02*
X13634468Y-15307803D01*
X13634468Y-15307803D02*
X13634468Y-15364945D01*
X13634468Y-15364945D02*
X13624944Y-15383993D01*
X13624944Y-15383993D02*
X13615420Y-15393517D01*
X13615420Y-15393517D02*
X13596373Y-15403041D01*
X13596373Y-15403041D02*
X13558277Y-15403041D01*
X13558277Y-15403041D02*
X13539230Y-15393517D01*
X13748753Y-15403041D02*
X13729706Y-15393517D01*
X13729706Y-15393517D02*
X13720182Y-15374469D01*
X13720182Y-15374469D02*
X13720182Y-15203041D01*
X13910658Y-15403041D02*
X13910658Y-15298279D01*
X13910658Y-15298279D02*
X13901134Y-15279231D01*
X13901134Y-15279231D02*
X13882087Y-15269707D01*
X13882087Y-15269707D02*
X13843992Y-15269707D01*
X13843992Y-15269707D02*
X13824944Y-15279231D01*
X13910658Y-15393517D02*
X13891611Y-15403041D01*
X13891611Y-15403041D02*
X13843992Y-15403041D01*
X13843992Y-15403041D02*
X13824944Y-15393517D01*
X13824944Y-15393517D02*
X13815420Y-15374469D01*
X13815420Y-15374469D02*
X13815420Y-15355422D01*
X13815420Y-15355422D02*
X13824944Y-15336374D01*
X13824944Y-15336374D02*
X13843992Y-15326850D01*
X13843992Y-15326850D02*
X13891611Y-15326850D01*
X13891611Y-15326850D02*
X13910658Y-15317326D01*
X13977325Y-15269707D02*
X14053515Y-15269707D01*
X14005896Y-15203041D02*
X14005896Y-15374469D01*
X14005896Y-15374469D02*
X14015420Y-15393517D01*
X14015420Y-15393517D02*
X14034468Y-15403041D01*
X14034468Y-15403041D02*
X14053515Y-15403041D01*
X14196373Y-15393517D02*
X14177325Y-15403041D01*
X14177325Y-15403041D02*
X14139230Y-15403041D01*
X14139230Y-15403041D02*
X14120182Y-15393517D01*
X14120182Y-15393517D02*
X14110658Y-15374469D01*
X14110658Y-15374469D02*
X14110658Y-15298279D01*
X14110658Y-15298279D02*
X14120182Y-15279231D01*
X14120182Y-15279231D02*
X14139230Y-15269707D01*
X14139230Y-15269707D02*
X14177325Y-15269707D01*
X14177325Y-15269707D02*
X14196373Y-15279231D01*
X14196373Y-15279231D02*
X14205896Y-15298279D01*
X14205896Y-15298279D02*
X14205896Y-15317326D01*
X14205896Y-15317326D02*
X14110658Y-15336374D01*
X14377325Y-15403041D02*
X14377325Y-15203041D01*
X14377325Y-15393517D02*
X14358277Y-15403041D01*
X14358277Y-15403041D02*
X14320182Y-15403041D01*
X14320182Y-15403041D02*
X14301134Y-15393517D01*
X14301134Y-15393517D02*
X14291611Y-15383993D01*
X14291611Y-15383993D02*
X14282087Y-15364945D01*
X14282087Y-15364945D02*
X14282087Y-15307803D01*
X14282087Y-15307803D02*
X14291611Y-15288755D01*
X14291611Y-15288755D02*
X14301134Y-15279231D01*
X14301134Y-15279231D02*
X14320182Y-15269707D01*
X14320182Y-15269707D02*
X14358277Y-15269707D01*
X14358277Y-15269707D02*
X14377325Y-15279231D01*
X14453515Y-15479231D02*
X14463039Y-15469707D01*
X14463039Y-15469707D02*
X14482087Y-15441136D01*
X14482087Y-15441136D02*
X14491611Y-15422088D01*
X14491611Y-15422088D02*
X14501134Y-15393517D01*
X14501134Y-15393517D02*
X14510658Y-15345898D01*
X14510658Y-15345898D02*
X14510658Y-15307803D01*
X14510658Y-15307803D02*
X14501134Y-15260183D01*
X14501134Y-15260183D02*
X14491611Y-15231612D01*
X14491611Y-15231612D02*
X14482087Y-15212564D01*
X14482087Y-15212564D02*
X14463039Y-15183993D01*
X14463039Y-15183993D02*
X14453515Y-15174469D01*
X7668211Y-15702268D02*
X7668211Y-15560845D01*
X7526789Y-15560845D01*
X7526789Y-15702268D01*
X7668211Y-15702268D01*
X8043991Y-15589707D02*
X8043991Y-15723041D01*
X7996372Y-15513517D02*
X7948753Y-15656374D01*
X7948753Y-15656374D02*
X8072562Y-15656374D01*
X8148753Y-15703993D02*
X8158277Y-15713517D01*
X8158277Y-15713517D02*
X8148753Y-15723041D01*
X8148753Y-15723041D02*
X8139229Y-15713517D01*
X8139229Y-15713517D02*
X8148753Y-15703993D01*
X8148753Y-15703993D02*
X8148753Y-15723041D01*
X8282086Y-15523041D02*
X8301134Y-15523041D01*
X8301134Y-15523041D02*
X8320182Y-15532564D01*
X8320182Y-15532564D02*
X8329705Y-15542088D01*
X8329705Y-15542088D02*
X8339229Y-15561136D01*
X8339229Y-15561136D02*
X8348753Y-15599231D01*
X8348753Y-15599231D02*
X8348753Y-15646850D01*
X8348753Y-15646850D02*
X8339229Y-15684945D01*
X8339229Y-15684945D02*
X8329705Y-15703993D01*
X8329705Y-15703993D02*
X8320182Y-15713517D01*
X8320182Y-15713517D02*
X8301134Y-15723041D01*
X8301134Y-15723041D02*
X8282086Y-15723041D01*
X8282086Y-15723041D02*
X8263039Y-15713517D01*
X8263039Y-15713517D02*
X8253515Y-15703993D01*
X8253515Y-15703993D02*
X8243991Y-15684945D01*
X8243991Y-15684945D02*
X8234467Y-15646850D01*
X8234467Y-15646850D02*
X8234467Y-15599231D01*
X8234467Y-15599231D02*
X8243991Y-15561136D01*
X8243991Y-15561136D02*
X8253515Y-15542088D01*
X8253515Y-15542088D02*
X8263039Y-15532564D01*
X8263039Y-15532564D02*
X8282086Y-15523041D01*
X8472563Y-15523041D02*
X8491610Y-15523041D01*
X8491610Y-15523041D02*
X8510658Y-15532564D01*
X8510658Y-15532564D02*
X8520182Y-15542088D01*
X8520182Y-15542088D02*
X8529705Y-15561136D01*
X8529705Y-15561136D02*
X8539229Y-15599231D01*
X8539229Y-15599231D02*
X8539229Y-15646850D01*
X8539229Y-15646850D02*
X8529705Y-15684945D01*
X8529705Y-15684945D02*
X8520182Y-15703993D01*
X8520182Y-15703993D02*
X8510658Y-15713517D01*
X8510658Y-15713517D02*
X8491610Y-15723041D01*
X8491610Y-15723041D02*
X8472563Y-15723041D01*
X8472563Y-15723041D02*
X8453515Y-15713517D01*
X8453515Y-15713517D02*
X8443991Y-15703993D01*
X8443991Y-15703993D02*
X8434467Y-15684945D01*
X8434467Y-15684945D02*
X8424944Y-15646850D01*
X8424944Y-15646850D02*
X8424944Y-15599231D01*
X8424944Y-15599231D02*
X8434467Y-15561136D01*
X8434467Y-15561136D02*
X8443991Y-15542088D01*
X8443991Y-15542088D02*
X8453515Y-15532564D01*
X8453515Y-15532564D02*
X8472563Y-15523041D01*
X8663039Y-15523041D02*
X8682086Y-15523041D01*
X8682086Y-15523041D02*
X8701134Y-15532564D01*
X8701134Y-15532564D02*
X8710658Y-15542088D01*
X8710658Y-15542088D02*
X8720182Y-15561136D01*
X8720182Y-15561136D02*
X8729705Y-15599231D01*
X8729705Y-15599231D02*
X8729705Y-15646850D01*
X8729705Y-15646850D02*
X8720182Y-15684945D01*
X8720182Y-15684945D02*
X8710658Y-15703993D01*
X8710658Y-15703993D02*
X8701134Y-15713517D01*
X8701134Y-15713517D02*
X8682086Y-15723041D01*
X8682086Y-15723041D02*
X8663039Y-15723041D01*
X8663039Y-15723041D02*
X8643991Y-15713517D01*
X8643991Y-15713517D02*
X8634467Y-15703993D01*
X8634467Y-15703993D02*
X8624944Y-15684945D01*
X8624944Y-15684945D02*
X8615420Y-15646850D01*
X8615420Y-15646850D02*
X8615420Y-15599231D01*
X8615420Y-15599231D02*
X8624944Y-15561136D01*
X8624944Y-15561136D02*
X8634467Y-15542088D01*
X8634467Y-15542088D02*
X8643991Y-15532564D01*
X8643991Y-15532564D02*
X8663039Y-15523041D01*
X8815420Y-15723041D02*
X8815420Y-15589707D01*
X8815420Y-15608755D02*
X8824944Y-15599231D01*
X8824944Y-15599231D02*
X8843991Y-15589707D01*
X8843991Y-15589707D02*
X8872563Y-15589707D01*
X8872563Y-15589707D02*
X8891610Y-15599231D01*
X8891610Y-15599231D02*
X8901134Y-15618279D01*
X8901134Y-15618279D02*
X8901134Y-15723041D01*
X8901134Y-15618279D02*
X8910658Y-15599231D01*
X8910658Y-15599231D02*
X8929705Y-15589707D01*
X8929705Y-15589707D02*
X8958277Y-15589707D01*
X8958277Y-15589707D02*
X8977325Y-15599231D01*
X8977325Y-15599231D02*
X8986848Y-15618279D01*
X8986848Y-15618279D02*
X8986848Y-15723041D01*
X9082086Y-15723041D02*
X9082086Y-15589707D01*
X9082086Y-15608755D02*
X9091610Y-15599231D01*
X9091610Y-15599231D02*
X9110658Y-15589707D01*
X9110658Y-15589707D02*
X9139229Y-15589707D01*
X9139229Y-15589707D02*
X9158277Y-15599231D01*
X9158277Y-15599231D02*
X9167801Y-15618279D01*
X9167801Y-15618279D02*
X9167801Y-15723041D01*
X9167801Y-15618279D02*
X9177325Y-15599231D01*
X9177325Y-15599231D02*
X9196372Y-15589707D01*
X9196372Y-15589707D02*
X9224944Y-15589707D01*
X9224944Y-15589707D02*
X9243991Y-15599231D01*
X9243991Y-15599231D02*
X9253515Y-15618279D01*
X9253515Y-15618279D02*
X9253515Y-15723041D01*
X9643991Y-15513517D02*
X9472563Y-15770660D01*
X9901134Y-15523041D02*
X9920182Y-15523041D01*
X9920182Y-15523041D02*
X9939229Y-15532564D01*
X9939229Y-15532564D02*
X9948753Y-15542088D01*
X9948753Y-15542088D02*
X9958277Y-15561136D01*
X9958277Y-15561136D02*
X9967801Y-15599231D01*
X9967801Y-15599231D02*
X9967801Y-15646850D01*
X9967801Y-15646850D02*
X9958277Y-15684945D01*
X9958277Y-15684945D02*
X9948753Y-15703993D01*
X9948753Y-15703993D02*
X9939229Y-15713517D01*
X9939229Y-15713517D02*
X9920182Y-15723041D01*
X9920182Y-15723041D02*
X9901134Y-15723041D01*
X9901134Y-15723041D02*
X9882087Y-15713517D01*
X9882087Y-15713517D02*
X9872563Y-15703993D01*
X9872563Y-15703993D02*
X9863039Y-15684945D01*
X9863039Y-15684945D02*
X9853515Y-15646850D01*
X9853515Y-15646850D02*
X9853515Y-15599231D01*
X9853515Y-15599231D02*
X9863039Y-15561136D01*
X9863039Y-15561136D02*
X9872563Y-15542088D01*
X9872563Y-15542088D02*
X9882087Y-15532564D01*
X9882087Y-15532564D02*
X9901134Y-15523041D01*
X10053515Y-15703993D02*
X10063039Y-15713517D01*
X10063039Y-15713517D02*
X10053515Y-15723041D01*
X10053515Y-15723041D02*
X10043991Y-15713517D01*
X10043991Y-15713517D02*
X10053515Y-15703993D01*
X10053515Y-15703993D02*
X10053515Y-15723041D01*
X10253515Y-15723041D02*
X10139229Y-15723041D01*
X10196372Y-15723041D02*
X10196372Y-15523041D01*
X10196372Y-15523041D02*
X10177325Y-15551612D01*
X10177325Y-15551612D02*
X10158277Y-15570660D01*
X10158277Y-15570660D02*
X10139229Y-15580183D01*
X10434468Y-15523041D02*
X10339229Y-15523041D01*
X10339229Y-15523041D02*
X10329706Y-15618279D01*
X10329706Y-15618279D02*
X10339229Y-15608755D01*
X10339229Y-15608755D02*
X10358277Y-15599231D01*
X10358277Y-15599231D02*
X10405896Y-15599231D01*
X10405896Y-15599231D02*
X10424944Y-15608755D01*
X10424944Y-15608755D02*
X10434468Y-15618279D01*
X10434468Y-15618279D02*
X10443991Y-15637326D01*
X10443991Y-15637326D02*
X10443991Y-15684945D01*
X10443991Y-15684945D02*
X10434468Y-15703993D01*
X10434468Y-15703993D02*
X10424944Y-15713517D01*
X10424944Y-15713517D02*
X10405896Y-15723041D01*
X10405896Y-15723041D02*
X10358277Y-15723041D01*
X10358277Y-15723041D02*
X10339229Y-15713517D01*
X10339229Y-15713517D02*
X10329706Y-15703993D01*
X10510658Y-15523041D02*
X10643991Y-15523041D01*
X10643991Y-15523041D02*
X10558277Y-15723041D01*
X10815420Y-15523041D02*
X10720182Y-15523041D01*
X10720182Y-15523041D02*
X10710658Y-15618279D01*
X10710658Y-15618279D02*
X10720182Y-15608755D01*
X10720182Y-15608755D02*
X10739229Y-15599231D01*
X10739229Y-15599231D02*
X10786849Y-15599231D01*
X10786849Y-15599231D02*
X10805896Y-15608755D01*
X10805896Y-15608755D02*
X10815420Y-15618279D01*
X10815420Y-15618279D02*
X10824944Y-15637326D01*
X10824944Y-15637326D02*
X10824944Y-15684945D01*
X10824944Y-15684945D02*
X10815420Y-15703993D01*
X10815420Y-15703993D02*
X10805896Y-15713517D01*
X10805896Y-15713517D02*
X10786849Y-15723041D01*
X10786849Y-15723041D02*
X10739229Y-15723041D01*
X10739229Y-15723041D02*
X10720182Y-15713517D01*
X10720182Y-15713517D02*
X10710658Y-15703993D01*
X10901134Y-15523041D02*
X10901134Y-15561136D01*
X10977325Y-15523041D02*
X10977325Y-15561136D01*
X11272563Y-15799231D02*
X11263039Y-15789707D01*
X11263039Y-15789707D02*
X11243991Y-15761136D01*
X11243991Y-15761136D02*
X11234468Y-15742088D01*
X11234468Y-15742088D02*
X11224944Y-15713517D01*
X11224944Y-15713517D02*
X11215420Y-15665898D01*
X11215420Y-15665898D02*
X11215420Y-15627803D01*
X11215420Y-15627803D02*
X11224944Y-15580183D01*
X11224944Y-15580183D02*
X11234468Y-15551612D01*
X11234468Y-15551612D02*
X11243991Y-15532564D01*
X11243991Y-15532564D02*
X11263039Y-15503993D01*
X11263039Y-15503993D02*
X11272563Y-15494469D01*
X11339229Y-15542088D02*
X11348753Y-15532564D01*
X11348753Y-15532564D02*
X11367801Y-15523041D01*
X11367801Y-15523041D02*
X11415420Y-15523041D01*
X11415420Y-15523041D02*
X11434468Y-15532564D01*
X11434468Y-15532564D02*
X11443991Y-15542088D01*
X11443991Y-15542088D02*
X11453515Y-15561136D01*
X11453515Y-15561136D02*
X11453515Y-15580183D01*
X11453515Y-15580183D02*
X11443991Y-15608755D01*
X11443991Y-15608755D02*
X11329706Y-15723041D01*
X11329706Y-15723041D02*
X11453515Y-15723041D01*
X11643991Y-15723041D02*
X11529706Y-15723041D01*
X11586848Y-15723041D02*
X11586848Y-15523041D01*
X11586848Y-15523041D02*
X11567801Y-15551612D01*
X11567801Y-15551612D02*
X11548753Y-15570660D01*
X11548753Y-15570660D02*
X11529706Y-15580183D01*
X11882087Y-15723041D02*
X11882087Y-15523041D01*
X11967801Y-15723041D02*
X11967801Y-15618279D01*
X11967801Y-15618279D02*
X11958277Y-15599231D01*
X11958277Y-15599231D02*
X11939230Y-15589707D01*
X11939230Y-15589707D02*
X11910658Y-15589707D01*
X11910658Y-15589707D02*
X11891610Y-15599231D01*
X11891610Y-15599231D02*
X11882087Y-15608755D01*
X12091610Y-15723041D02*
X12072563Y-15713517D01*
X12072563Y-15713517D02*
X12063039Y-15703993D01*
X12063039Y-15703993D02*
X12053515Y-15684945D01*
X12053515Y-15684945D02*
X12053515Y-15627803D01*
X12053515Y-15627803D02*
X12063039Y-15608755D01*
X12063039Y-15608755D02*
X12072563Y-15599231D01*
X12072563Y-15599231D02*
X12091610Y-15589707D01*
X12091610Y-15589707D02*
X12120182Y-15589707D01*
X12120182Y-15589707D02*
X12139230Y-15599231D01*
X12139230Y-15599231D02*
X12148753Y-15608755D01*
X12148753Y-15608755D02*
X12158277Y-15627803D01*
X12158277Y-15627803D02*
X12158277Y-15684945D01*
X12158277Y-15684945D02*
X12148753Y-15703993D01*
X12148753Y-15703993D02*
X12139230Y-15713517D01*
X12139230Y-15713517D02*
X12120182Y-15723041D01*
X12120182Y-15723041D02*
X12091610Y-15723041D01*
X12272563Y-15723041D02*
X12253515Y-15713517D01*
X12253515Y-15713517D02*
X12243991Y-15694469D01*
X12243991Y-15694469D02*
X12243991Y-15523041D01*
X12424944Y-15713517D02*
X12405896Y-15723041D01*
X12405896Y-15723041D02*
X12367801Y-15723041D01*
X12367801Y-15723041D02*
X12348753Y-15713517D01*
X12348753Y-15713517D02*
X12339230Y-15694469D01*
X12339230Y-15694469D02*
X12339230Y-15618279D01*
X12339230Y-15618279D02*
X12348753Y-15599231D01*
X12348753Y-15599231D02*
X12367801Y-15589707D01*
X12367801Y-15589707D02*
X12405896Y-15589707D01*
X12405896Y-15589707D02*
X12424944Y-15599231D01*
X12424944Y-15599231D02*
X12434468Y-15618279D01*
X12434468Y-15618279D02*
X12434468Y-15637326D01*
X12434468Y-15637326D02*
X12339230Y-15656374D01*
X12510658Y-15713517D02*
X12529706Y-15723041D01*
X12529706Y-15723041D02*
X12567801Y-15723041D01*
X12567801Y-15723041D02*
X12586849Y-15713517D01*
X12586849Y-15713517D02*
X12596372Y-15694469D01*
X12596372Y-15694469D02*
X12596372Y-15684945D01*
X12596372Y-15684945D02*
X12586849Y-15665898D01*
X12586849Y-15665898D02*
X12567801Y-15656374D01*
X12567801Y-15656374D02*
X12539230Y-15656374D01*
X12539230Y-15656374D02*
X12520182Y-15646850D01*
X12520182Y-15646850D02*
X12510658Y-15627803D01*
X12510658Y-15627803D02*
X12510658Y-15618279D01*
X12510658Y-15618279D02*
X12520182Y-15599231D01*
X12520182Y-15599231D02*
X12539230Y-15589707D01*
X12539230Y-15589707D02*
X12567801Y-15589707D01*
X12567801Y-15589707D02*
X12586849Y-15599231D01*
X12663039Y-15799231D02*
X12672563Y-15789707D01*
X12672563Y-15789707D02*
X12691611Y-15761136D01*
X12691611Y-15761136D02*
X12701134Y-15742088D01*
X12701134Y-15742088D02*
X12710658Y-15713517D01*
X12710658Y-15713517D02*
X12720182Y-15665898D01*
X12720182Y-15665898D02*
X12720182Y-15627803D01*
X12720182Y-15627803D02*
X12710658Y-15580183D01*
X12710658Y-15580183D02*
X12701134Y-15551612D01*
X12701134Y-15551612D02*
X12691611Y-15532564D01*
X12691611Y-15532564D02*
X12672563Y-15503993D01*
X12672563Y-15503993D02*
X12663039Y-15494469D01*
X13024944Y-15799231D02*
X13015420Y-15789707D01*
X13015420Y-15789707D02*
X12996372Y-15761136D01*
X12996372Y-15761136D02*
X12986849Y-15742088D01*
X12986849Y-15742088D02*
X12977325Y-15713517D01*
X12977325Y-15713517D02*
X12967801Y-15665898D01*
X12967801Y-15665898D02*
X12967801Y-15627803D01*
X12967801Y-15627803D02*
X12977325Y-15580183D01*
X12977325Y-15580183D02*
X12986849Y-15551612D01*
X12986849Y-15551612D02*
X12996372Y-15532564D01*
X12996372Y-15532564D02*
X13015420Y-15503993D01*
X13015420Y-15503993D02*
X13024944Y-15494469D01*
X13101134Y-15589707D02*
X13101134Y-15723041D01*
X13101134Y-15608755D02*
X13110658Y-15599231D01*
X13110658Y-15599231D02*
X13129706Y-15589707D01*
X13129706Y-15589707D02*
X13158277Y-15589707D01*
X13158277Y-15589707D02*
X13177325Y-15599231D01*
X13177325Y-15599231D02*
X13186849Y-15618279D01*
X13186849Y-15618279D02*
X13186849Y-15723041D01*
X13310658Y-15723041D02*
X13291611Y-15713517D01*
X13291611Y-15713517D02*
X13282087Y-15703993D01*
X13282087Y-15703993D02*
X13272563Y-15684945D01*
X13272563Y-15684945D02*
X13272563Y-15627803D01*
X13272563Y-15627803D02*
X13282087Y-15608755D01*
X13282087Y-15608755D02*
X13291611Y-15599231D01*
X13291611Y-15599231D02*
X13310658Y-15589707D01*
X13310658Y-15589707D02*
X13339230Y-15589707D01*
X13339230Y-15589707D02*
X13358277Y-15599231D01*
X13358277Y-15599231D02*
X13367801Y-15608755D01*
X13367801Y-15608755D02*
X13377325Y-15627803D01*
X13377325Y-15627803D02*
X13377325Y-15684945D01*
X13377325Y-15684945D02*
X13367801Y-15703993D01*
X13367801Y-15703993D02*
X13358277Y-15713517D01*
X13358277Y-15713517D02*
X13339230Y-15723041D01*
X13339230Y-15723041D02*
X13310658Y-15723041D01*
X13434468Y-15589707D02*
X13510658Y-15589707D01*
X13463039Y-15523041D02*
X13463039Y-15694469D01*
X13463039Y-15694469D02*
X13472563Y-15713517D01*
X13472563Y-15713517D02*
X13491611Y-15723041D01*
X13491611Y-15723041D02*
X13510658Y-15723041D01*
X13729706Y-15589707D02*
X13729706Y-15789707D01*
X13729706Y-15599231D02*
X13748753Y-15589707D01*
X13748753Y-15589707D02*
X13786849Y-15589707D01*
X13786849Y-15589707D02*
X13805896Y-15599231D01*
X13805896Y-15599231D02*
X13815420Y-15608755D01*
X13815420Y-15608755D02*
X13824944Y-15627803D01*
X13824944Y-15627803D02*
X13824944Y-15684945D01*
X13824944Y-15684945D02*
X13815420Y-15703993D01*
X13815420Y-15703993D02*
X13805896Y-15713517D01*
X13805896Y-15713517D02*
X13786849Y-15723041D01*
X13786849Y-15723041D02*
X13748753Y-15723041D01*
X13748753Y-15723041D02*
X13729706Y-15713517D01*
X13939230Y-15723041D02*
X13920182Y-15713517D01*
X13920182Y-15713517D02*
X13910658Y-15694469D01*
X13910658Y-15694469D02*
X13910658Y-15523041D01*
X14101134Y-15723041D02*
X14101134Y-15618279D01*
X14101134Y-15618279D02*
X14091611Y-15599231D01*
X14091611Y-15599231D02*
X14072563Y-15589707D01*
X14072563Y-15589707D02*
X14034468Y-15589707D01*
X14034468Y-15589707D02*
X14015420Y-15599231D01*
X14101134Y-15713517D02*
X14082087Y-15723041D01*
X14082087Y-15723041D02*
X14034468Y-15723041D01*
X14034468Y-15723041D02*
X14015420Y-15713517D01*
X14015420Y-15713517D02*
X14005896Y-15694469D01*
X14005896Y-15694469D02*
X14005896Y-15675422D01*
X14005896Y-15675422D02*
X14015420Y-15656374D01*
X14015420Y-15656374D02*
X14034468Y-15646850D01*
X14034468Y-15646850D02*
X14082087Y-15646850D01*
X14082087Y-15646850D02*
X14101134Y-15637326D01*
X14167801Y-15589707D02*
X14243992Y-15589707D01*
X14196373Y-15523041D02*
X14196373Y-15694469D01*
X14196373Y-15694469D02*
X14205896Y-15713517D01*
X14205896Y-15713517D02*
X14224944Y-15723041D01*
X14224944Y-15723041D02*
X14243992Y-15723041D01*
X14386849Y-15713517D02*
X14367801Y-15723041D01*
X14367801Y-15723041D02*
X14329706Y-15723041D01*
X14329706Y-15723041D02*
X14310658Y-15713517D01*
X14310658Y-15713517D02*
X14301134Y-15694469D01*
X14301134Y-15694469D02*
X14301134Y-15618279D01*
X14301134Y-15618279D02*
X14310658Y-15599231D01*
X14310658Y-15599231D02*
X14329706Y-15589707D01*
X14329706Y-15589707D02*
X14367801Y-15589707D01*
X14367801Y-15589707D02*
X14386849Y-15599231D01*
X14386849Y-15599231D02*
X14396373Y-15618279D01*
X14396373Y-15618279D02*
X14396373Y-15637326D01*
X14396373Y-15637326D02*
X14301134Y-15656374D01*
X14567801Y-15723041D02*
X14567801Y-15523041D01*
X14567801Y-15713517D02*
X14548754Y-15723041D01*
X14548754Y-15723041D02*
X14510658Y-15723041D01*
X14510658Y-15723041D02*
X14491611Y-15713517D01*
X14491611Y-15713517D02*
X14482087Y-15703993D01*
X14482087Y-15703993D02*
X14472563Y-15684945D01*
X14472563Y-15684945D02*
X14472563Y-15627803D01*
X14472563Y-15627803D02*
X14482087Y-15608755D01*
X14482087Y-15608755D02*
X14491611Y-15599231D01*
X14491611Y-15599231D02*
X14510658Y-15589707D01*
X14510658Y-15589707D02*
X14548754Y-15589707D01*
X14548754Y-15589707D02*
X14567801Y-15599231D01*
X14643992Y-15799231D02*
X14653515Y-15789707D01*
X14653515Y-15789707D02*
X14672563Y-15761136D01*
X14672563Y-15761136D02*
X14682087Y-15742088D01*
X14682087Y-15742088D02*
X14691611Y-15713517D01*
X14691611Y-15713517D02*
X14701134Y-15665898D01*
X14701134Y-15665898D02*
X14701134Y-15627803D01*
X14701134Y-15627803D02*
X14691611Y-15580183D01*
X14691611Y-15580183D02*
X14682087Y-15551612D01*
X14682087Y-15551612D02*
X14672563Y-15532564D01*
X14672563Y-15532564D02*
X14653515Y-15503993D01*
X14653515Y-15503993D02*
X14643992Y-15494469D01*
M02*
