%TF.GenerationSoftware,KiCad,Pcbnew,8.0.1*%
%TF.CreationDate,2024-04-05T15:46:44+03:00*%
%TF.ProjectId,dedekind,64656465-6b69-46e6-942e-6b696361645f,rev?*%
%TF.SameCoordinates,Original*%
%TF.FileFunction,Soldermask,Top*%
%TF.FilePolarity,Negative*%
%FSLAX46Y46*%
G04 Gerber Fmt 4.6, Leading zero omitted, Abs format (unit mm)*
G04 Created by KiCad (PCBNEW 8.0.1) date 2024-04-05 15:46:44*
%MOMM*%
%LPD*%
G01*
G04 APERTURE LIST*
G04 Aperture macros list*
%AMRoundRect*
0 Rectangle with rounded corners*
0 $1 Rounding radius*
0 $2 $3 $4 $5 $6 $7 $8 $9 X,Y pos of 4 corners*
0 Add a 4 corners polygon primitive as box body*
4,1,4,$2,$3,$4,$5,$6,$7,$8,$9,$2,$3,0*
0 Add four circle primitives for the rounded corners*
1,1,$1+$1,$2,$3*
1,1,$1+$1,$4,$5*
1,1,$1+$1,$6,$7*
1,1,$1+$1,$8,$9*
0 Add four rect primitives between the rounded corners*
20,1,$1+$1,$2,$3,$4,$5,0*
20,1,$1+$1,$4,$5,$6,$7,0*
20,1,$1+$1,$6,$7,$8,$9,0*
20,1,$1+$1,$8,$9,$2,$3,0*%
%AMFreePoly0*
4,1,18,-1.275000,1.000000,-1.255970,1.095671,-1.201777,1.176777,-1.120671,1.230970,-1.025000,1.250000,1.025000,1.250000,1.120671,1.230970,1.201777,1.176777,1.255970,1.095671,1.275000,1.000000,1.275000,-0.750000,0.775000,-1.250000,-1.025000,-1.250000,-1.120671,-1.230970,-1.201777,-1.176777,-1.255970,-1.095671,-1.275000,-1.000000,-1.275000,1.000000,-1.275000,1.000000,$1*%
%AMFreePoly1*
4,1,36,0.837070,0.744929,1.006515,0.704769,1.162132,0.626616,1.196235,0.598000,2.021600,0.598000,2.079451,0.576944,2.085240,0.571640,2.593240,0.063640,2.619258,0.007844,2.603324,-0.051622,2.593240,-0.063640,2.085240,-0.571640,2.029444,-0.597658,2.021600,-0.598000,1.196411,-0.598000,1.086599,-0.670224,0.922962,-0.729784,0.750000,-0.750000,0.000000,-0.750000,-0.750000,-0.750000,
-0.837070,-0.744929,-1.006515,-0.704769,-1.162132,-0.626616,-1.295530,-0.514681,-1.399519,-0.375000,-1.468492,-0.215102,-1.498731,-0.043609,-1.488606,0.130236,-1.438662,0.297060,-1.351592,0.447869,-1.232091,0.574533,-1.086599,0.670224,-0.922962,0.729784,-0.750000,0.750000,0.750000,0.750000,0.837070,0.744929,0.837070,0.744929,$1*%
%AMFreePoly2*
4,1,20,0.808779,0.580902,0.845106,0.530902,0.845106,0.469098,0.820711,0.429289,0.391422,0.000000,0.820711,-0.429289,0.848769,-0.484357,0.839101,-0.545399,0.795399,-0.589101,0.750000,-0.600000,-0.250000,-0.600000,-0.308779,-0.580902,-0.345106,-0.530902,-0.350000,-0.500000,-0.350000,0.500000,-0.330902,0.558779,-0.280902,0.595106,-0.250000,0.600000,0.750000,0.600000,0.808779,0.580902,
0.808779,0.580902,$1*%
G04 Aperture macros list end*
%ADD10C,1.750000*%
%ADD11C,3.050000*%
%ADD12C,4.000000*%
%ADD13C,1.000000*%
%ADD14RoundRect,0.250000X-1.025000X-1.000000X1.025000X-1.000000X1.025000X1.000000X-1.025000X1.000000X0*%
%ADD15FreePoly0,0.000000*%
%ADD16RoundRect,0.250000X-0.350000X-0.450000X0.350000X-0.450000X0.350000X0.450000X-0.350000X0.450000X0*%
%ADD17RoundRect,0.250000X0.350000X0.450000X-0.350000X0.450000X-0.350000X-0.450000X0.350000X-0.450000X0*%
%ADD18C,0.700000*%
%ADD19O,3.200000X1.300000*%
%ADD20O,2.500000X1.300000*%
%ADD21C,5.600000*%
%ADD22C,3.200000*%
%ADD23FreePoly1,0.000000*%
%ADD24FreePoly1,180.000000*%
%ADD25FreePoly2,0.000000*%
%ADD26FreePoly2,180.000000*%
%ADD27RoundRect,0.250000X0.250000X0.250000X-0.250000X0.250000X-0.250000X-0.250000X0.250000X-0.250000X0*%
%ADD28RoundRect,0.250000X-0.835780X-1.162797X1.183076X-0.806818X0.835780X1.162797X-1.183076X0.806818X0*%
%ADD29FreePoly0,10.000000*%
%ADD30RoundRect,0.250000X-1.305205X-0.589122X0.621165X-1.290263X1.305205X0.589122X-0.621165X1.290263X0*%
%ADD31FreePoly0,340.000000*%
%ADD32C,0.800000*%
G04 APERTURE END LIST*
D10*
%TO.C,SW16*%
X139382500Y-97631250D03*
X139382500Y-97631250D03*
D11*
X140652500Y-95091250D03*
X141922500Y-92551250D03*
D12*
X144462500Y-97631250D03*
D11*
X147002500Y-92551250D03*
X148272500Y-95091250D03*
D10*
X149542500Y-97631250D03*
X149542500Y-97631250D03*
D13*
X150304500Y-92551250D03*
X151547500Y-95091250D03*
D14*
X151547500Y-95091250D03*
D13*
X137377500Y-95091250D03*
X138620500Y-92551250D03*
D15*
X138620500Y-92551250D03*
%TD*%
D10*
%TO.C,SW4*%
X139382500Y-59531250D03*
X139382500Y-59531250D03*
D11*
X140652500Y-56991250D03*
X141922500Y-54451250D03*
D12*
X144462500Y-59531250D03*
D11*
X147002500Y-54451250D03*
X148272500Y-56991250D03*
D10*
X149542500Y-59531250D03*
X149542500Y-59531250D03*
D13*
X150304500Y-54451250D03*
X151547500Y-56991250D03*
D14*
X151547500Y-56991250D03*
D13*
X137377500Y-56991250D03*
X138620500Y-54451250D03*
D15*
X138620500Y-54451250D03*
%TD*%
D16*
%TO.C,JP1*%
X203216000Y-111379000D03*
X205216000Y-111379000D03*
D17*
X207216000Y-111379000D03*
%TD*%
D18*
%TO.C,J1*%
X210850000Y-117021000D03*
X210850000Y-116171000D03*
X210850000Y-115321000D03*
X210850000Y-114471000D03*
X210850000Y-113621000D03*
X210850000Y-112771000D03*
X210850000Y-111921000D03*
X210850000Y-111071000D03*
X212200000Y-111071000D03*
X212200000Y-111921000D03*
X212200000Y-112771000D03*
X212200000Y-113621000D03*
X212200000Y-114471000D03*
X212200000Y-115321000D03*
X212200000Y-116171000D03*
X212200000Y-117021000D03*
D19*
X211350000Y-118366000D03*
D20*
X215675000Y-118366000D03*
D19*
X211350000Y-109726000D03*
D20*
X215675000Y-109726000D03*
%TD*%
D10*
%TO.C,SW5*%
X158432500Y-65087500D03*
X158432500Y-65087500D03*
D11*
X159702500Y-62547500D03*
X160972500Y-60007500D03*
D12*
X163512500Y-65087500D03*
D11*
X166052500Y-60007500D03*
X167322500Y-62547500D03*
D10*
X168592500Y-65087500D03*
X168592500Y-65087500D03*
D13*
X169354500Y-60007500D03*
X170597500Y-62547500D03*
D14*
X170597500Y-62547500D03*
D13*
X156427500Y-62547500D03*
X157670500Y-60007500D03*
D15*
X157670500Y-60007500D03*
%TD*%
D10*
%TO.C,SW1*%
X82232500Y-76200000D03*
X82232500Y-76200000D03*
D11*
X83502500Y-73660000D03*
X84772500Y-71120000D03*
D12*
X87312500Y-76200000D03*
D11*
X89852500Y-71120000D03*
X91122500Y-73660000D03*
D10*
X92392500Y-76200000D03*
X92392500Y-76200000D03*
D13*
X93154500Y-71120000D03*
X94397500Y-73660000D03*
D14*
X94397500Y-73660000D03*
D13*
X80227500Y-73660000D03*
X81470500Y-71120000D03*
D15*
X81470500Y-71120000D03*
%TD*%
D10*
%TO.C,SW15*%
X120332500Y-103187500D03*
X120332500Y-103187500D03*
D11*
X121602500Y-100647500D03*
X122872500Y-98107500D03*
D12*
X125412500Y-103187500D03*
D11*
X127952500Y-98107500D03*
X129222500Y-100647500D03*
D10*
X130492500Y-103187500D03*
X130492500Y-103187500D03*
D13*
X131254500Y-98107500D03*
X132497500Y-100647500D03*
D14*
X132497500Y-100647500D03*
D13*
X118327500Y-100647500D03*
X119570500Y-98107500D03*
D15*
X119570500Y-98107500D03*
%TD*%
D10*
%TO.C,SW6*%
X177482500Y-66675000D03*
X177482500Y-66675000D03*
D11*
X178752500Y-64135000D03*
X180022500Y-61595000D03*
D12*
X182562500Y-66675000D03*
D11*
X185102500Y-61595000D03*
X186372500Y-64135000D03*
D10*
X187642500Y-66675000D03*
X187642500Y-66675000D03*
D13*
X188404500Y-61595000D03*
X189647500Y-64135000D03*
D14*
X189647500Y-64135000D03*
D13*
X175477500Y-64135000D03*
X176720500Y-61595000D03*
D15*
X176720500Y-61595000D03*
%TD*%
D21*
%TO.C,H5*%
X194200000Y-116000000D03*
%TD*%
D22*
%TO.C,H4*%
X151000000Y-110000000D03*
%TD*%
D10*
%TO.C,SW18*%
X177482500Y-104775000D03*
X177482500Y-104775000D03*
D11*
X178752500Y-102235000D03*
X180022500Y-99695000D03*
D12*
X182562500Y-104775000D03*
D11*
X185102500Y-99695000D03*
X186372500Y-102235000D03*
D10*
X187642500Y-104775000D03*
X187642500Y-104775000D03*
D13*
X188404500Y-99695000D03*
X189647500Y-102235000D03*
D14*
X189647500Y-102235000D03*
D13*
X175477500Y-102235000D03*
X176720500Y-99695000D03*
D15*
X176720500Y-99695000D03*
%TD*%
D23*
%TO.C,U1*%
X195382091Y-58042727D03*
X195382091Y-60582727D03*
X195382091Y-63122727D03*
X195382091Y-65662727D03*
X195382091Y-68202727D03*
X195382091Y-70742727D03*
X195382091Y-73282727D03*
X195382091Y-75822727D03*
X195382091Y-78362727D03*
X195382091Y-80902727D03*
X195382091Y-83442727D03*
X195382091Y-85982727D03*
X195382091Y-88522727D03*
X195382091Y-91062727D03*
X195382091Y-93602727D03*
X195382091Y-96142727D03*
X195382091Y-98682727D03*
X195382091Y-101222727D03*
X195382091Y-103762727D03*
X195382091Y-106302727D03*
D24*
X214462091Y-58042727D03*
X214462091Y-60582727D03*
X214462091Y-63122727D03*
X214462091Y-65662727D03*
X214462091Y-68202727D03*
X214462091Y-70742727D03*
X214462091Y-73282727D03*
X214462091Y-75822727D03*
X214462091Y-78362727D03*
X214462091Y-80902727D03*
X214462091Y-83442727D03*
X214462091Y-85982727D03*
X214462091Y-88522727D03*
X214462091Y-91062727D03*
X214462091Y-93602727D03*
X214462091Y-96142727D03*
X214462091Y-98682727D03*
X214462091Y-101222727D03*
X214462091Y-103762727D03*
X214462091Y-106302727D03*
D25*
X211018091Y-58042727D03*
X211018091Y-60582727D03*
X211018091Y-63122727D03*
X211018091Y-65662727D03*
X211018091Y-68202727D03*
X211018091Y-70742727D03*
X211018091Y-73282727D03*
X211018091Y-75822727D03*
X211018091Y-78362727D03*
X211018091Y-80902727D03*
X211018091Y-83442727D03*
X211018091Y-85982727D03*
X211018091Y-88522727D03*
X211018091Y-91062727D03*
X211018091Y-93602727D03*
X211018091Y-96142727D03*
X211018091Y-98682727D03*
X211018091Y-101222727D03*
X211018091Y-103762727D03*
X211018091Y-106302727D03*
D26*
X198826091Y-106302727D03*
X198826091Y-103762727D03*
X198826091Y-101222727D03*
X198826091Y-98682727D03*
X198826091Y-96142727D03*
X198826091Y-93602727D03*
X198826091Y-91062727D03*
X198826091Y-88522727D03*
X198826091Y-85982727D03*
X198826091Y-83442727D03*
X198826091Y-80902727D03*
X198826091Y-78362727D03*
X198826091Y-75822727D03*
X198826091Y-73282727D03*
X198826091Y-70742727D03*
X198826091Y-68202727D03*
X198826091Y-65662727D03*
X198826091Y-63122727D03*
X198826091Y-60582727D03*
X198826091Y-58042727D03*
%TD*%
D10*
%TO.C,SW3*%
X120332500Y-65087500D03*
X120332500Y-65087500D03*
D11*
X121602500Y-62547500D03*
X122872500Y-60007500D03*
D12*
X125412500Y-65087500D03*
D11*
X127952500Y-60007500D03*
X129222500Y-62547500D03*
D10*
X130492500Y-65087500D03*
X130492500Y-65087500D03*
D13*
X131254500Y-60007500D03*
X132497500Y-62547500D03*
D14*
X132497500Y-62547500D03*
D13*
X118327500Y-62547500D03*
X119570500Y-60007500D03*
D15*
X119570500Y-60007500D03*
%TD*%
D10*
%TO.C,SW17*%
X158432500Y-103187500D03*
X158432500Y-103187500D03*
D11*
X159702500Y-100647500D03*
X160972500Y-98107500D03*
D12*
X163512500Y-103187500D03*
D11*
X166052500Y-98107500D03*
X167322500Y-100647500D03*
D10*
X168592500Y-103187500D03*
X168592500Y-103187500D03*
D13*
X169354500Y-98107500D03*
X170597500Y-100647500D03*
D14*
X170597500Y-100647500D03*
D13*
X156427500Y-100647500D03*
X157670500Y-98107500D03*
D15*
X157670500Y-98107500D03*
%TD*%
D10*
%TO.C,SW13*%
X82232500Y-114300000D03*
X82232500Y-114300000D03*
D11*
X83502500Y-111760000D03*
X84772500Y-109220000D03*
D12*
X87312500Y-114300000D03*
D11*
X89852500Y-109220000D03*
X91122500Y-111760000D03*
D10*
X92392500Y-114300000D03*
X92392500Y-114300000D03*
D13*
X93154500Y-109220000D03*
X94397500Y-111760000D03*
D14*
X94397500Y-111760000D03*
D13*
X80227500Y-111760000D03*
X81470500Y-109220000D03*
D15*
X81470500Y-109220000D03*
%TD*%
D10*
%TO.C,SW8*%
X101282500Y-95250000D03*
X101282500Y-95250000D03*
D11*
X102552500Y-92710000D03*
X103822500Y-90170000D03*
D12*
X106362500Y-95250000D03*
D11*
X108902500Y-90170000D03*
X110172500Y-92710000D03*
D10*
X111442500Y-95250000D03*
X111442500Y-95250000D03*
D13*
X112204500Y-90170000D03*
X113447500Y-92710000D03*
D14*
X113447500Y-92710000D03*
D13*
X99277500Y-92710000D03*
X100520500Y-90170000D03*
D15*
X100520500Y-90170000D03*
%TD*%
D10*
%TO.C,SW11*%
X158432500Y-84137500D03*
X158432500Y-84137500D03*
D11*
X159702500Y-81597500D03*
X160972500Y-79057500D03*
D12*
X163512500Y-84137500D03*
D11*
X166052500Y-79057500D03*
X167322500Y-81597500D03*
D10*
X168592500Y-84137500D03*
X168592500Y-84137500D03*
D13*
X169354500Y-79057500D03*
X170597500Y-81597500D03*
D14*
X170597500Y-81597500D03*
D13*
X156427500Y-81597500D03*
X157670500Y-79057500D03*
D15*
X157670500Y-79057500D03*
%TD*%
D22*
%TO.C,H2*%
X111500000Y-63000000D03*
%TD*%
D10*
%TO.C,SW2*%
X101282500Y-76200000D03*
X101282500Y-76200000D03*
D11*
X102552500Y-73660000D03*
X103822500Y-71120000D03*
D12*
X106362500Y-76200000D03*
D11*
X108902500Y-71120000D03*
X110172500Y-73660000D03*
D10*
X111442500Y-76200000D03*
X111442500Y-76200000D03*
D13*
X112204500Y-71120000D03*
X113447500Y-73660000D03*
D14*
X113447500Y-73660000D03*
D13*
X99277500Y-73660000D03*
X100520500Y-71120000D03*
D15*
X100520500Y-71120000D03*
%TD*%
D27*
%TO.C,D2*%
X206355000Y-113919000D03*
X203855000Y-113919000D03*
%TD*%
D10*
%TO.C,SW9*%
X120332500Y-84137500D03*
X120332500Y-84137500D03*
D11*
X121602500Y-81597500D03*
X122872500Y-79057500D03*
D12*
X125412500Y-84137500D03*
D11*
X127952500Y-79057500D03*
X129222500Y-81597500D03*
D10*
X130492500Y-84137500D03*
X130492500Y-84137500D03*
D13*
X131254500Y-79057500D03*
X132497500Y-81597500D03*
D14*
X132497500Y-81597500D03*
D13*
X118327500Y-81597500D03*
X119570500Y-79057500D03*
D15*
X119570500Y-79057500D03*
%TD*%
D10*
%TO.C,SW12*%
X177482500Y-85725000D03*
X177482500Y-85725000D03*
D11*
X178752500Y-83185000D03*
X180022500Y-80645000D03*
D12*
X182562500Y-85725000D03*
D11*
X185102500Y-80645000D03*
X186372500Y-83185000D03*
D10*
X187642500Y-85725000D03*
X187642500Y-85725000D03*
D13*
X188404500Y-80645000D03*
X189647500Y-83185000D03*
D14*
X189647500Y-83185000D03*
D13*
X175477500Y-83185000D03*
X176720500Y-80645000D03*
D15*
X176720500Y-80645000D03*
%TD*%
D10*
%TO.C,SW19*%
X156128427Y-126492133D03*
X156128427Y-126492133D03*
D11*
X156938066Y-123770188D03*
X157747706Y-121048243D03*
D12*
X161131250Y-125610000D03*
D11*
X162750529Y-120166110D03*
X164442301Y-122446989D03*
D10*
X166134073Y-124727867D03*
X166134073Y-124727867D03*
D13*
X166002364Y-119592724D03*
X167667547Y-121878291D03*
D28*
X167667547Y-121878291D03*
D13*
X153712821Y-124338886D03*
X154495870Y-121621629D03*
D29*
X154495870Y-121621629D03*
%TD*%
D10*
%TO.C,SW20*%
X177482500Y-123825000D03*
X177482500Y-123825000D03*
D11*
X178752500Y-121285000D03*
X180022500Y-118745000D03*
D12*
X182562500Y-123825000D03*
D11*
X185102500Y-118745000D03*
X186372500Y-121285000D03*
D10*
X187642500Y-123825000D03*
X187642500Y-123825000D03*
D13*
X188404500Y-118745000D03*
X189647500Y-121285000D03*
D14*
X189647500Y-121285000D03*
D13*
X175477500Y-121285000D03*
X176720500Y-118745000D03*
D15*
X176720500Y-118745000D03*
%TD*%
D27*
%TO.C,D1*%
X202037000Y-113919000D03*
X199537000Y-113919000D03*
%TD*%
D10*
%TO.C,SW14*%
X101282500Y-114300000D03*
X101282500Y-114300000D03*
D11*
X102552500Y-111760000D03*
X103822500Y-109220000D03*
D12*
X106362500Y-114300000D03*
D11*
X108902500Y-109220000D03*
X110172500Y-111760000D03*
D10*
X111442500Y-114300000D03*
X111442500Y-114300000D03*
D13*
X112204500Y-109220000D03*
X113447500Y-111760000D03*
D14*
X113447500Y-111760000D03*
D13*
X99277500Y-111760000D03*
X100520500Y-109220000D03*
D15*
X100520500Y-109220000D03*
%TD*%
D17*
%TO.C,JP2*%
X201152000Y-111379000D03*
X199152000Y-111379000D03*
D16*
X197152000Y-111379000D03*
%TD*%
D10*
%TO.C,SW10*%
X139382500Y-78581250D03*
X139382500Y-78581250D03*
D11*
X140652500Y-76041250D03*
X141922500Y-73501250D03*
D12*
X144462500Y-78581250D03*
D11*
X147002500Y-73501250D03*
X148272500Y-76041250D03*
D10*
X149542500Y-78581250D03*
X149542500Y-78581250D03*
D13*
X150304500Y-73501250D03*
X151547500Y-76041250D03*
D14*
X151547500Y-76041250D03*
D13*
X137377500Y-76041250D03*
X138620500Y-73501250D03*
D15*
X138620500Y-73501250D03*
%TD*%
D22*
%TO.C,H1*%
X173000000Y-75400000D03*
%TD*%
D10*
%TO.C,SW21*%
X200013861Y-126056288D03*
X200013861Y-126056288D03*
D11*
X202076002Y-124103834D03*
X204138143Y-122151380D03*
D12*
X204787500Y-127793750D03*
D11*
X208911783Y-123888843D03*
X209236460Y-126710027D03*
D10*
X209561139Y-129531212D03*
X209561139Y-129531212D03*
D13*
X212014647Y-125018193D03*
X212313952Y-127830143D03*
D30*
X212313952Y-127830143D03*
D13*
X198998509Y-122983718D03*
X201035278Y-121022030D03*
D31*
X201035278Y-121022030D03*
%TD*%
D22*
%TO.C,H3*%
X96837500Y-104775000D03*
%TD*%
D10*
%TO.C,SW7*%
X82232500Y-95250000D03*
X82232500Y-95250000D03*
D11*
X83502500Y-92710000D03*
X84772500Y-90170000D03*
D12*
X87312500Y-95250000D03*
D11*
X89852500Y-90170000D03*
X91122500Y-92710000D03*
D10*
X92392500Y-95250000D03*
X92392500Y-95250000D03*
D13*
X93154500Y-90170000D03*
X94397500Y-92710000D03*
D14*
X94397500Y-92710000D03*
D13*
X80227500Y-92710000D03*
X81470500Y-90170000D03*
D15*
X81470500Y-90170000D03*
%TD*%
D32*
X199898000Y-58928000D03*
X199898000Y-60579000D03*
X192372091Y-59297727D03*
X199898000Y-65659000D03*
X188912500Y-130175000D03*
X209931000Y-101219000D03*
X150812500Y-103981250D03*
X199898000Y-88519000D03*
X106500000Y-65100000D03*
X125412500Y-116681250D03*
X119062500Y-109537500D03*
X119062500Y-71437500D03*
X131762500Y-71437500D03*
X112712500Y-82550000D03*
X209931000Y-88510727D03*
X198437500Y-130175000D03*
X100012500Y-120650000D03*
X112712500Y-120650000D03*
X205232000Y-108458000D03*
X146050000Y-116681250D03*
X80962500Y-120650000D03*
X157162500Y-109537500D03*
X93662500Y-120650000D03*
X199898000Y-75819000D03*
X119062500Y-90487500D03*
X209931000Y-63119000D03*
X138112500Y-65881250D03*
X138112500Y-84931250D03*
X179324000Y-75406250D03*
X169862500Y-109537500D03*
X80962500Y-82550000D03*
X176212500Y-92075000D03*
X80962500Y-101600000D03*
X197993000Y-108458000D03*
X199898000Y-63119000D03*
X150812500Y-84931250D03*
X209931000Y-75819000D03*
X100012500Y-82550000D03*
X199898000Y-101219000D03*
X112712500Y-101600000D03*
X131762500Y-90487500D03*
X100012500Y-101600000D03*
X167481250Y-130175000D03*
X156368750Y-130175000D03*
X169862500Y-92075000D03*
X156368750Y-73818750D03*
X166687500Y-73818750D03*
X127000000Y-53400000D03*
X135731250Y-116681250D03*
X188976000Y-75406250D03*
X162718750Y-53800000D03*
X150812500Y-65881250D03*
X176212500Y-130175000D03*
X157162500Y-92075000D03*
X188912500Y-92075000D03*
X176212500Y-111125000D03*
X91281250Y-101600000D03*
X131762500Y-109537500D03*
X138112500Y-103981250D03*
X93662500Y-82550000D03*
X199898000Y-73279000D03*
X199898000Y-70739000D03*
X199898000Y-68199000D03*
X209931000Y-74321118D03*
X199898000Y-78359000D03*
X209905863Y-79197727D03*
X199898000Y-81699000D03*
X192500000Y-79600000D03*
X209931000Y-80890727D03*
X199898000Y-83439000D03*
X209931000Y-85979000D03*
X199898000Y-86995000D03*
X209931000Y-91050727D03*
X209931000Y-106299000D03*
X209931000Y-103759000D03*
X209931000Y-94488000D03*
X199898000Y-93599000D03*
X199898000Y-91948000D03*
X209931000Y-96130727D03*
X192481686Y-99098686D03*
X199898000Y-97138888D03*
X209931000Y-98679000D03*
X209931000Y-58039000D03*
M02*
