M48
; DRILL file {KiCad 8.0.1} date 2024-04-05T15:47:04+0300
; FORMAT={-:-/ absolute / metric / decimal}
; #@! TF.CreationDate,2024-04-05T15:47:04+03:00
; #@! TF.GenerationSoftware,Kicad,Pcbnew,8.0.1
; #@! TF.FileFunction,NonPlated,1,2,NPTH
FMAT,2
METRIC
; #@! TA.AperFunction,NonPlated,NPTH,ComponentDrill
T1C1.750
; #@! TA.AperFunction,NonPlated,NPTH,ComponentDrill
T2C3.050
; #@! TA.AperFunction,NonPlated,NPTH,ComponentDrill
T3C3.200
; #@! TA.AperFunction,NonPlated,NPTH,ComponentDrill
T4C4.000
%
G90
G05
T1
X82.233Y-76.2
X82.233Y-76.2
X82.233Y-95.25
X82.233Y-95.25
X82.233Y-114.3
X82.233Y-114.3
X92.392Y-76.2
X92.392Y-76.2
X92.392Y-95.25
X92.392Y-95.25
X92.392Y-114.3
X92.392Y-114.3
X101.282Y-76.2
X101.282Y-76.2
X101.282Y-95.25
X101.282Y-95.25
X101.282Y-114.3
X101.282Y-114.3
X111.442Y-76.2
X111.442Y-76.2
X111.442Y-95.25
X111.442Y-95.25
X111.442Y-114.3
X111.442Y-114.3
X120.332Y-65.087
X120.332Y-65.087
X120.332Y-84.138
X120.332Y-84.138
X120.332Y-103.188
X120.332Y-103.188
X130.493Y-65.087
X130.493Y-65.087
X130.493Y-84.138
X130.493Y-84.138
X130.493Y-103.188
X130.493Y-103.188
X139.382Y-59.531
X139.382Y-59.531
X139.382Y-78.581
X139.382Y-78.581
X139.382Y-97.631
X139.382Y-97.631
X149.542Y-59.531
X149.542Y-59.531
X149.542Y-78.581
X149.542Y-78.581
X149.542Y-97.631
X149.542Y-97.631
X156.128Y-126.492
X156.128Y-126.492
X158.433Y-65.087
X158.433Y-65.087
X158.433Y-84.138
X158.433Y-84.138
X158.433Y-103.188
X158.433Y-103.188
X166.134Y-124.728
X166.134Y-124.728
X168.593Y-65.087
X168.593Y-65.087
X168.593Y-84.138
X168.593Y-84.138
X168.593Y-103.188
X168.593Y-103.188
X177.482Y-66.675
X177.482Y-66.675
X177.482Y-85.725
X177.482Y-85.725
X177.482Y-104.775
X177.482Y-104.775
X177.482Y-123.825
X177.482Y-123.825
X187.642Y-66.675
X187.642Y-66.675
X187.642Y-85.725
X187.642Y-85.725
X187.642Y-104.775
X187.642Y-104.775
X187.642Y-123.825
X187.642Y-123.825
X200.014Y-126.056
X200.014Y-126.056
X209.561Y-129.531
X209.561Y-129.531
T2
X83.502Y-73.66
X83.502Y-92.71
X83.502Y-111.76
X84.772Y-71.12
X84.772Y-90.17
X84.772Y-109.22
X89.852Y-71.12
X89.852Y-90.17
X89.852Y-109.22
X91.123Y-73.66
X91.123Y-92.71
X91.123Y-111.76
X102.552Y-73.66
X102.552Y-92.71
X102.552Y-111.76
X103.822Y-71.12
X103.822Y-90.17
X103.822Y-109.22
X108.902Y-71.12
X108.902Y-90.17
X108.902Y-109.22
X110.172Y-73.66
X110.172Y-92.71
X110.172Y-111.76
X121.602Y-62.547
X121.602Y-81.597
X121.602Y-100.647
X122.872Y-60.008
X122.872Y-79.057
X122.872Y-98.108
X127.953Y-60.008
X127.953Y-79.057
X127.953Y-98.108
X129.222Y-62.547
X129.222Y-81.597
X129.222Y-100.647
X140.653Y-56.991
X140.653Y-76.041
X140.653Y-95.091
X141.922Y-54.451
X141.922Y-73.501
X141.922Y-92.551
X147.002Y-54.451
X147.002Y-73.501
X147.002Y-92.551
X148.272Y-56.991
X148.272Y-76.041
X148.272Y-95.091
X156.938Y-123.77
X157.748Y-121.048
X159.702Y-62.547
X159.702Y-81.597
X159.702Y-100.647
X160.972Y-60.008
X160.972Y-79.057
X160.972Y-98.108
X162.751Y-120.166
X164.442Y-122.447
X166.052Y-60.008
X166.052Y-79.057
X166.052Y-98.108
X167.322Y-62.547
X167.322Y-81.597
X167.322Y-100.647
X178.752Y-64.135
X178.752Y-83.185
X178.752Y-102.235
X178.752Y-121.285
X180.022Y-61.595
X180.022Y-80.645
X180.022Y-99.695
X180.022Y-118.745
X185.102Y-61.595
X185.102Y-80.645
X185.102Y-99.695
X185.102Y-118.745
X186.373Y-64.135
X186.373Y-83.185
X186.373Y-102.235
X186.373Y-121.285
X202.076Y-124.104
X204.138Y-122.151
X208.912Y-123.889
X209.236Y-126.71
T3
X96.837Y-104.775
X111.5Y-63.0
X151.0Y-110.0
X173.0Y-75.4
T4
X87.312Y-76.2
X87.312Y-95.25
X87.312Y-114.3
X106.362Y-76.2
X106.362Y-95.25
X106.362Y-114.3
X125.412Y-65.087
X125.412Y-84.138
X125.412Y-103.188
X144.463Y-59.531
X144.463Y-78.581
X144.463Y-97.631
X161.131Y-125.61
X163.512Y-65.087
X163.512Y-84.138
X163.512Y-103.188
X182.562Y-66.675
X182.562Y-85.725
X182.562Y-104.775
X182.562Y-123.825
X204.787Y-127.794
M30
