M48
; DRILL file {KiCad 8.0.1} date 2024-04-05T15:47:04+0300
; FORMAT={-:-/ absolute / metric / decimal}
; #@! TF.CreationDate,2024-04-05T15:47:04+03:00
; #@! TF.GenerationSoftware,Kicad,Pcbnew,8.0.1
; #@! TF.FileFunction,Plated,1,2,PTH
FMAT,2
METRIC
; #@! TA.AperFunction,Plated,PTH,ViaDrill
T1C0.400
; #@! TA.AperFunction,Plated,PTH,ComponentDrill
T2C0.400
; #@! TA.AperFunction,Plated,PTH,ComponentDrill
T3C0.500
; #@! TA.AperFunction,Plated,PTH,ComponentDrill
T4C0.600
; #@! TA.AperFunction,Plated,PTH,ComponentDrill
T5C0.700
; #@! TA.AperFunction,Plated,PTH,ComponentDrill
T6C1.000
; #@! TA.AperFunction,Plated,PTH,ComponentDrill
T7C3.200
%
G90
G05
T1
X80.962Y-82.55
X80.962Y-101.6
X80.962Y-120.65
X91.281Y-101.6
X93.662Y-82.55
X93.662Y-120.65
X100.012Y-82.55
X100.012Y-101.6
X100.012Y-120.65
X106.5Y-65.1
X112.712Y-82.55
X112.712Y-101.6
X112.712Y-120.65
X119.062Y-71.438
X119.062Y-90.487
X119.062Y-109.537
X125.412Y-116.681
X127.0Y-53.4
X131.762Y-71.438
X131.762Y-90.487
X131.762Y-109.537
X135.731Y-116.681
X138.112Y-65.881
X138.112Y-84.931
X138.112Y-103.981
X146.05Y-116.681
X150.812Y-65.881
X150.812Y-84.931
X150.812Y-103.981
X156.369Y-73.819
X156.369Y-130.175
X157.162Y-92.075
X157.162Y-109.537
X162.719Y-53.8
X166.688Y-73.819
X167.481Y-130.175
X169.862Y-92.075
X169.862Y-109.537
X176.213Y-92.075
X176.213Y-111.125
X176.213Y-130.175
X179.324Y-75.406
X188.912Y-92.075
X188.912Y-130.175
X188.976Y-75.406
X192.372Y-59.298
X192.482Y-99.099
X192.5Y-79.6
X197.993Y-108.458
X198.438Y-130.175
X199.898Y-58.928
X199.898Y-60.579
X199.898Y-63.119
X199.898Y-65.659
X199.898Y-68.199
X199.898Y-70.739
X199.898Y-73.279
X199.898Y-75.819
X199.898Y-78.359
X199.898Y-81.699
X199.898Y-83.439
X199.898Y-86.995
X199.898Y-88.519
X199.898Y-91.948
X199.898Y-93.599
X199.898Y-97.139
X199.898Y-101.219
X205.232Y-108.458
X209.906Y-79.198
X209.931Y-58.039
X209.931Y-63.119
X209.931Y-74.321
X209.931Y-75.819
X209.931Y-80.891
X209.931Y-85.979
X209.931Y-88.511
X209.931Y-91.051
X209.931Y-94.488
X209.931Y-96.131
X209.931Y-98.679
X209.931Y-101.219
X209.931Y-103.759
X209.931Y-106.299
T2
X210.85Y-111.071
X210.85Y-111.921
X210.85Y-112.771
X210.85Y-113.621
X210.85Y-114.471
X210.85Y-115.321
X210.85Y-116.171
X210.85Y-117.021
X212.2Y-111.071
X212.2Y-111.921
X212.2Y-112.771
X212.2Y-113.621
X212.2Y-114.471
X212.2Y-115.321
X212.2Y-116.171
X212.2Y-117.021
T3
X80.227Y-73.66
X80.227Y-92.71
X80.227Y-111.76
X81.471Y-71.12
X81.471Y-90.17
X81.471Y-109.22
X93.154Y-71.12
X93.154Y-90.17
X93.154Y-109.22
X94.397Y-73.66
X94.397Y-92.71
X94.397Y-111.76
X99.277Y-73.66
X99.277Y-92.71
X99.277Y-111.76
X100.52Y-71.12
X100.52Y-90.17
X100.52Y-109.22
X112.204Y-71.12
X112.204Y-90.17
X112.204Y-109.22
X113.447Y-73.66
X113.447Y-92.71
X113.447Y-111.76
X118.328Y-62.547
X118.328Y-81.597
X118.328Y-100.647
X119.57Y-60.008
X119.57Y-79.057
X119.57Y-98.108
X131.255Y-60.008
X131.255Y-79.057
X131.255Y-98.108
X132.498Y-62.547
X132.498Y-81.597
X132.498Y-100.647
X137.377Y-56.991
X137.377Y-76.041
X137.377Y-95.091
X138.62Y-54.451
X138.62Y-73.501
X138.62Y-92.551
X150.304Y-54.451
X150.304Y-73.501
X150.304Y-92.551
X151.547Y-56.991
X151.547Y-76.041
X151.547Y-95.091
X153.713Y-124.339
X154.496Y-121.622
X156.427Y-62.547
X156.427Y-81.597
X156.427Y-100.647
X157.671Y-60.008
X157.671Y-79.057
X157.671Y-98.108
X166.002Y-119.593
X167.668Y-121.878
X169.355Y-60.008
X169.355Y-79.057
X169.355Y-98.108
X170.597Y-62.547
X170.597Y-81.597
X170.597Y-100.647
X175.477Y-64.135
X175.477Y-83.185
X175.477Y-102.235
X175.477Y-121.285
X176.72Y-61.595
X176.72Y-80.645
X176.72Y-99.695
X176.72Y-118.745
X188.404Y-61.595
X188.404Y-80.645
X188.404Y-99.695
X188.404Y-118.745
X189.647Y-64.135
X189.647Y-83.185
X189.647Y-102.235
X189.647Y-121.285
X198.999Y-122.984
X199.537Y-113.919
X201.035Y-121.022
X202.037Y-113.919
X203.855Y-113.919
X206.355Y-113.919
X212.015Y-125.018
X212.314Y-127.83
T4
X197.152Y-111.379
X199.152Y-111.379
X201.152Y-111.379
X203.216Y-111.379
X205.216Y-111.379
X207.216Y-111.379
T6
X196.032Y-58.043
X196.032Y-60.583
X196.032Y-63.123
X196.032Y-65.663
X196.032Y-68.203
X196.032Y-70.743
X196.032Y-73.283
X196.032Y-75.823
X196.032Y-78.363
X196.032Y-80.903
X196.032Y-83.443
X196.032Y-85.983
X196.032Y-88.523
X196.032Y-91.063
X196.032Y-93.603
X196.032Y-96.143
X196.032Y-98.683
X196.032Y-101.223
X196.032Y-103.763
X196.032Y-106.303
X213.812Y-58.043
X213.812Y-60.583
X213.812Y-63.123
X213.812Y-65.663
X213.812Y-68.203
X213.812Y-70.743
X213.812Y-73.283
X213.812Y-75.823
X213.812Y-78.363
X213.812Y-80.903
X213.812Y-83.443
X213.812Y-85.983
X213.812Y-88.523
X213.812Y-91.063
X213.812Y-93.603
X213.812Y-96.143
X213.812Y-98.683
X213.812Y-101.223
X213.812Y-103.763
X213.812Y-106.303
T7
X194.2Y-116.0
T5
G00X210.7Y-109.726
M15
G01X212.0Y-109.726
M16
G05
G00X210.7Y-118.366
M15
G01X212.0Y-118.366
M16
G05
G00X215.05Y-109.726
M15
G01X215.95Y-109.726
M16
G05
G00X215.05Y-118.366
M15
G01X215.95Y-118.366
M16
G05
M30
